<svg width="502" height="242" viewBox="0 0 502 242" fill="none" xmlns="http://www.w3.org/2000/svg">
<g opacity="0.18" clip-path="url(#clip0_20_671)">
<path d="M501.515 72.4615H0V434.769H501.515V72.4615Z" fill="#007579"/>
<path d="M250.758 434.769C250.758 425.16 247.114 415.945 240.627 409.15C234.141 402.356 225.344 398.538 216.17 398.538H34.5872V36.2308H129.702V362.308H181.583C199.929 362.308 217.524 369.942 230.497 383.531C243.47 397.12 250.758 415.551 250.758 434.769Z" fill="#43C7FF"/>
<path d="M466.928 36.2308V398.538H285.345C276.172 398.538 267.374 402.356 260.888 409.15C254.402 415.945 250.758 425.16 250.758 434.769V72.4615C250.758 62.8525 254.402 53.6371 260.888 46.8425C267.374 40.0479 276.172 36.2308 285.345 36.2308H466.928Z" fill="#336CFF"/>
<path d="M250.758 72.4615V434.769C250.758 415.551 243.47 397.12 230.497 383.531C217.524 369.942 199.929 362.308 181.583 362.308H129.702V0H181.583C199.929 0 217.524 7.63432 230.497 21.2235C243.47 34.8127 250.758 53.2435 250.758 72.4615Z" fill="#475DCC"/>
<path d="M432.341 36.2308V172.096L389.107 135.865L345.873 172.096V36.2308H432.341Z" fill="#ED9209"/>
</g>
<defs>
<clipPath id="clip0_20_671">
<rect width="502" height="242" fill="white"/>
</clipPath>
</defs>
</svg>
