<svg width="700" height="700" viewBox="0 0 700 700" fill="none" xmlns="http://www.w3.org/2000/svg">
<g clip-path="url(#clip0_9_3)">
<path d="M0 0H700V700H0V0Z" fill="#07B594"/>
<path d="M524 563H248V167H524C533.941 167 542 174.801 542 184.742V544.742C542 554.683 533.941 563 524 563Z" fill="#0A7362" stroke="#0A7362" stroke-width="8" stroke-miterlimit="10" stroke-linecap="round" stroke-linejoin="round"/>
<path d="M485 571H471C469.674 571 468.402 570.473 467.464 569.536C466.527 568.598 466 567.326 466 566V164C466 162.674 466.527 161.402 467.464 160.464C468.402 159.527 469.674 159 471 159H485C486.326 159 487.598 159.527 488.536 160.464C489.473 161.402 490 162.674 490 164V566C490 567.326 489.473 568.598 488.536 569.536C487.598 570.473 486.326 571 485 571ZM309 608.742L279 592V563H309V608.742Z" fill="#0A7362" stroke="#0A7362" stroke-width="8" stroke-miterlimit="10" stroke-linecap="round" stroke-linejoin="round"/>
<path d="M514 548H238V152H514C523.941 152 532 159.801 532 169.742V529.742C532 539.683 523.941 548 514 548Z" fill="#4C5B60"/>
<mask id="mask0_9_3" style="mask-type:luminance" maskUnits="userSpaceOnUse" x="238" y="152" width="294" height="396">
<path d="M514 548H238V152H514C523.941 152 532 159.801 532 169.742V529.742C532 539.683 523.941 548 514 548Z" fill="white"/>
</mask>
<g mask="url(#mask0_9_3)">
<g opacity="0.11">
<path d="M553.75 506.75L209.417 851.083M553.75 492.75L209.417 837.083M553.75 478.75L209.417 823.083M553.75 464.75L209.417 809.083M553.75 450.75L209.417 795.083M553.75 436.75L209.417 781.083M553.75 422.75L209.417 767.083M553.75 408.75L209.417 753.083M553.75 394.75L209.417 739.083M553.75 380.75L209.417 725.083M553.75 366.75L209.417 711.083M553.75 352.75L209.417 697.083M553.75 338.75L209.417 683.083M553.75 324.75L209.417 669.083M553.75 310.75L209.417 655.083M553.75 296.75L209.417 641.083M553.75 282.75L209.417 627.083M553.75 268.75L209.417 613.083M553.75 254.75L209.417 599.083M553.75 240.75L209.417 585.083M553.75 226.75L209.417 571.083M553.75 212.75L209.417 557.083M553.75 198.75L209.417 543.083M553.75 184.75L209.417 529.083M553.75 170.75L209.417 515.083M553.75 156.75L209.417 501.083M553.75 142.75L209.417 487.083M553.75 128.75L209.417 473.083M553.75 114.75L209.417 459.083M553.75 100.75L209.417 445.083M553.75 86.75L209.417 431.083M553.75 72.75L209.417 417.083M553.75 58.75L209.417 403.083M553.75 44.75L209.417 389.083M553.75 30.75L209.417 375.083M553.75 16.75L209.417 361.083M553.75 2.75L209.417 347.083M553.75 -11.25L209.417 333.083M553.75 -25.25L209.417 319.083M553.75 -39.25L209.417 305.083M553.75 -53.25L209.417 291.083M553.75 -67.25L209.417 277.083M553.75 -81.25L209.417 263.083M553.75 -95.25L209.417 249.083M553.75 -109.25L209.417 235.083M553.75 -123.25L209.417 221.083M522.25 -105.75L209.417 207.083M502.75 -100.25L209.417 193.083" stroke="#102D3B" stroke-width="3" stroke-miterlimit="10" stroke-linecap="round" stroke-linejoin="round"/>
</g>
</g>
<path d="M467 152H491V548H467V152Z" fill="#526770"/>
<path d="M238 152H272V548H238V152Z" stroke="#102D3B" stroke-width="8" stroke-miterlimit="10" stroke-linecap="round" stroke-linejoin="round"/>
<path opacity="0.37" d="M238 152H255V548H238V152Z" fill="#526770"/>
<path d="M238 266H532V378H238V266Z" fill="#FF9852"/>
<path d="M272 266V378" stroke="#526770" stroke-width="8" stroke-miterlimit="10"/>
<path opacity="0.51" d="M238 266H255V378H238V266Z" fill="#526770"/>
<path opacity="0.61" d="M474 266H491V378H474V266Z" fill="#D85639"/>
<path d="M238 266H532V378H238V266Z" stroke="#102D3B" stroke-width="8" stroke-miterlimit="10" stroke-linecap="round" stroke-linejoin="round"/>
<path d="M514 548H238V152H514C523.941 152 532 159.801 532 169.742V529.742C532 539.683 523.941 548 514 548Z" stroke="#102D3B" stroke-width="8" stroke-miterlimit="10" stroke-linecap="round" stroke-linejoin="round"/>
<path d="M474.167 556H461.834C460.287 556 458.803 555.385 457.709 554.292C456.616 553.198 456.001 551.714 456.001 550.167V149.833C456.001 149.067 456.152 148.308 456.445 147.601C456.738 146.893 457.168 146.25 457.709 145.708C458.251 145.167 458.894 144.737 459.602 144.444C460.309 144.151 461.068 144 461.834 144H474.167C474.933 144 475.691 144.151 476.399 144.444C477.107 144.737 477.75 145.167 478.292 145.708C478.833 146.25 479.263 146.893 479.556 147.601C479.849 148.308 480 149.067 480 149.833V550.166C480 551.713 479.385 553.197 478.292 554.291C477.198 555.385 475.714 556 474.167 556Z" fill="#B7C8CE"/>
<path d="M474.167 556H461.834C460.287 556 458.803 555.385 457.709 554.292C456.616 553.198 456.001 551.714 456.001 550.167V149.833C456.001 149.067 456.152 148.308 456.445 147.601C456.738 146.893 457.168 146.25 457.709 145.708C458.251 145.167 458.894 144.737 459.602 144.444C460.309 144.151 461.068 144 461.834 144H474.167C474.933 144 475.691 144.151 476.399 144.444C477.107 144.737 477.75 145.167 478.292 145.708C478.833 146.25 479.263 146.893 479.556 147.601C479.849 148.308 480 149.067 480 149.833V550.166C480 551.713 479.385 553.197 478.292 554.291C477.198 555.385 475.714 556 474.167 556Z" stroke="#102D3B" stroke-width="8" stroke-miterlimit="10" stroke-linecap="round" stroke-linejoin="round"/>
<path d="M299 593.742L269 577V548H299V593.742Z" fill="#EA3939"/>
<path opacity="0.62" d="M269 548H299V559.333H269V548Z" fill="#EA3939"/>
<path d="M299 593.742L269 577V548H299V593.742Z" stroke="#102D3B" stroke-width="8" stroke-miterlimit="10" stroke-linecap="round" stroke-linejoin="round"/>
<path d="M147 236H179V387H147V236ZM179.406 489H146.925C144.8 467 144.8 444 146.925 421H179.406C181.531 444 181.531 467 179.406 489ZM179.406 421H146.925C153.597 411 153.597 398 146.925 387H179.406C172.735 398 172.735 411 179.406 421ZM167.308 536C172.728 520 179.231 505 179.407 489H146.926C147.101 505 153.605 520 159.025 536H167.308ZM159 536H167V542H159V536ZM163 543V556ZM151 214H175V236H151V214ZM172 214H154V188.333C154 184.836 157.169 182 160.666 182H165.666C167.346 182 168.957 182.667 170.144 183.855C171.332 185.042 172 186.653 172 188.333V214Z" fill="#0A7362"/>
<path d="M146.925 421C144.8 444 144.8 467 146.925 489H179.406C181.531 467 181.531 444 179.406 421M146.925 421H179.406M146.925 421C153.597 411 153.597 398 146.925 387H179.406C172.735 398 172.735 411 179.406 421M163 543V556M147 236H179V387H147V236ZM167.308 536C172.728 520 179.231 505 179.407 489H146.926C147.101 505 153.605 520 159.025 536H167.308ZM159 536H167V542H159V536ZM151 214H175V236H151V214ZM172 214H154V188.333C154 184.836 157.169 182 160.666 182H165.666C167.346 182 168.957 182.667 170.144 183.855C171.332 185.042 172 186.653 172 188.333V214Z" stroke="#0A7362" stroke-width="8" stroke-miterlimit="10" stroke-linecap="round" stroke-linejoin="round"/>
<path d="M159 250H190V268H159V250ZM190 329.333L179 314.833V268H190V329.333Z" fill="#0A7362"/>
<path d="M190 268V250H159V268H190ZM190 268H179V314.833L190 329.333V268Z" stroke="#0A7362" stroke-width="8" stroke-miterlimit="10" stroke-linecap="round" stroke-linejoin="round"/>
<path d="M172.406 416H139.925C146.597 406 146.597 393 139.925 382H172.406C165.735 393 165.735 406 172.406 416Z" fill="#102D3B"/>
<path d="M140 231H172V382H140V231Z" fill="#526066"/>
<path d="M140 231H172V382H140V231Z" fill="#526066"/>
<path opacity="0.64" d="M140 231H150V382H140V231Z" fill="#526066"/>
<path opacity="0.3" d="M163 231H172V382H163V231Z" fill="#526066"/>
<path d="M140 231H172V382H140V231Z" stroke="#102D3B" stroke-width="8" stroke-miterlimit="10" stroke-linecap="round" stroke-linejoin="round"/>
<path d="M172.406 484H139.925C137.8 462 137.8 439 139.925 416H172.406C174.531 439 174.531 462 172.406 484Z" fill="#42708A"/>
<path d="M172.406 484H139.925C137.8 462 137.8 439 139.925 416H172.406C174.531 439 174.531 462 172.406 484Z" fill="#526066"/>
<path opacity="0.3" d="M172.406 416H164.572C166.697 439 166.697 462 164.572 484H172.406C174.531 462 174.531 439 172.406 416Z" fill="#526066"/>
<path opacity="0.73" d="M151.417 483H146.751C144.657 461.319 144.637 438.666 146.67 416H151.501C149.408 438.653 149.387 461.302 151.417 483Z" fill="#CCDDE5"/>
<path d="M172.406 484H139.925C137.8 462 137.8 439 139.925 416H172.406C174.531 439 174.531 462 172.406 484Z" stroke="#102D3B" stroke-width="8" stroke-miterlimit="10" stroke-linecap="round" stroke-linejoin="round"/>
<path d="M138 440H174V461H138V440ZM172.406 416H139.925C146.597 406 146.597 393 139.925 382H172.406C165.735 393 165.735 406 172.406 416Z" stroke="#102D3B" stroke-width="8" stroke-miterlimit="10" stroke-linecap="round" stroke-linejoin="round"/>
<path d="M160.308 531C165.728 515 172.231 500 172.407 484H139.926C140.101 500 146.605 515 152.025 531H160.308Z" fill="#CCDDE5"/>
<path d="M172.406 484C172.402 484.335 172.38 484.666 172.371 485H150.925C151.038 500.714 153.775 515.671 157.155 531H152.024C146.604 515 140.101 500 139.925 484H172.406Z" fill="white"/>
<path d="M156 538V551M160.308 531C165.728 515 172.231 500 172.407 484H139.926C140.101 500 146.605 515 152.025 531H160.308ZM152 531H160V537H152V531ZM144 209H168V231H144V209Z" stroke="#102D3B" stroke-width="8" stroke-miterlimit="10" stroke-linecap="round" stroke-linejoin="round"/>
<path d="M144 209H168V231H144V209Z" fill="#102D3B"/>
<path d="M165 209H147V183.333C147 179.836 150.169 177 153.666 177H158.666C160.346 177 161.957 177.667 163.144 178.855C164.332 180.042 165 181.653 165 183.333V209Z" fill="#CCDDE5"/>
<path d="M165 209H147V183.333C147 179.836 150.169 177 153.666 177H158.666C160.346 177 161.957 177.667 163.144 178.855C164.332 180.042 165 181.653 165 183.333V209Z" stroke="#102D3B" stroke-width="8" stroke-miterlimit="10" stroke-linecap="round" stroke-linejoin="round"/>
<path d="M152 245H183V263H152V245Z" fill="#CCDDE5"/>
<path d="M152 245H183V263H152V245Z" stroke="#102D3B" stroke-width="8" stroke-miterlimit="10" stroke-linecap="round" stroke-linejoin="round"/>
<path d="M183 324.333L172 309.833V263H183V324.333Z" fill="#CCDDE5"/>
<path d="M183 324.333L172 309.833V263H183V324.333Z" stroke="#102D3B" stroke-width="8" stroke-miterlimit="10" stroke-linecap="round" stroke-linejoin="round"/>
</g>
<defs>
<clipPath id="clip0_9_3">
<rect width="700" height="700" fill="white"/>
</clipPath>
</defs>
</svg>
