<svg width="684" height="415" viewBox="0 0 684 415" fill="none" xmlns="http://www.w3.org/2000/svg">
<path d="M636.812 414.412C643.184 414.412 649.491 413.121 655.351 410.616C661.211 408.111 666.503 404.444 670.909 399.837C675.314 395.231 678.741 389.779 680.982 383.811C683.224 377.843 684.235 371.483 683.953 365.113C682.403 329.985 664.446 280.381 593.673 230.81C507.369 170.361 546.291 -3.68576 362.921 8.32368C179.551 20.3331 197.031 148.957 84.5914 207.91C13.0217 245.436 0.0046506 318.862 0 367.277C0.0117126 379.787 4.98912 391.78 13.8377 400.619C22.6863 409.458 34.6816 414.42 47.1858 414.412H636.812Z" fill="#F3F5FD"/>
<path d="M565.286 15.1531H428.614C421.979 15.1531 416.6 20.5345 416.6 27.1727V196.674C416.6 203.312 421.979 208.694 428.614 208.694H565.286C571.922 208.694 577.3 203.312 577.3 196.674V27.1727C577.3 20.5345 571.922 15.1531 565.286 15.1531Z" fill="#C1D8ED"/>
<path d="M564.155 25.5015H429.746C427.943 25.5015 426.481 26.9642 426.481 28.7685V195.078C426.481 196.882 427.943 198.345 429.746 198.345H564.155C565.958 198.345 567.42 196.882 567.42 195.078V28.7685C567.42 26.9642 565.958 25.5015 564.155 25.5015Z" fill="#DEE8F5"/>
<path d="M533.323 5.11255H460.579C456.813 5.11255 453.759 8.16706 453.759 11.935V29.2198C453.759 32.9878 456.813 36.0423 460.579 36.0423H533.323C537.089 36.0423 540.142 32.9878 540.142 29.2198V11.935C540.142 8.16706 537.089 5.11255 533.323 5.11255Z" fill="#C1D8ED"/>
<path d="M559.231 67.9568H434.421V72.0861H559.231V67.9568Z" fill="white"/>
<path d="M503.485 76.0828H434.421V80.2121H503.485V76.0828Z" fill="white"/>
<path d="M452.528 134.106H435.921C435.537 134.106 435.17 133.954 434.899 133.683C434.628 133.412 434.476 133.044 434.476 132.661V116.046C434.476 115.662 434.628 115.295 434.899 115.024C435.17 114.753 435.537 114.6 435.921 114.6H452.528C452.718 114.6 452.906 114.638 453.081 114.71C453.256 114.783 453.416 114.889 453.55 115.023C453.684 115.158 453.791 115.317 453.863 115.492C453.936 115.668 453.973 115.856 453.973 116.046V132.661C453.973 132.851 453.936 133.039 453.863 133.214C453.791 133.389 453.684 133.549 453.55 133.683C453.416 133.817 453.256 133.924 453.081 133.996C452.906 134.069 452.718 134.106 452.528 134.106ZM437.366 131.215H451.085V117.49H437.366V131.215Z" fill="#C1D8ED"/>
<path d="M536.628 117.368H459.397V121.806H536.628V117.368Z" fill="white"/>
<path d="M524.109 126.902H459.397V131.34H524.109V126.902Z" fill="white"/>
<path d="M452.528 189.725H435.921C435.537 189.725 435.17 189.573 434.899 189.302C434.628 189.031 434.476 188.663 434.476 188.28V171.665C434.476 171.282 434.628 170.914 434.899 170.643C435.17 170.372 435.537 170.22 435.921 170.22H452.528C452.911 170.22 453.279 170.372 453.55 170.643C453.821 170.914 453.973 171.282 453.973 171.665V188.28C453.973 188.47 453.936 188.658 453.863 188.833C453.791 189.009 453.684 189.168 453.55 189.302C453.416 189.437 453.256 189.543 453.081 189.616C452.906 189.688 452.718 189.726 452.528 189.725ZM437.366 186.835H451.085V173.109H437.366V186.835Z" fill="#C1D8ED"/>
<path d="M536.628 172.987H459.397V177.424H536.628V172.987Z" fill="white"/>
<path d="M524.109 182.521H459.397V186.959H524.109V182.521Z" fill="white"/>
<path d="M452.528 106.297H435.921C435.537 106.297 435.17 106.144 434.899 105.873C434.628 105.602 434.476 105.235 434.476 104.851V88.2364C434.476 87.8532 434.628 87.4857 434.899 87.2148C435.17 86.9439 435.537 86.7917 435.921 86.7917H452.528C452.718 86.7916 452.905 86.8289 453.081 86.9015C453.256 86.974 453.415 87.0804 453.55 87.2146C453.684 87.3487 453.79 87.508 453.863 87.6833C453.936 87.8587 453.973 88.0466 453.973 88.2364V104.851C453.973 105.041 453.936 105.229 453.863 105.405C453.791 105.58 453.684 105.739 453.55 105.874C453.416 106.008 453.256 106.114 453.081 106.187C452.906 106.26 452.718 106.297 452.528 106.297ZM437.366 103.406H451.085V89.6803H437.366V103.406Z" fill="#C1D8ED"/>
<path d="M536.628 89.5577H459.397V93.9957H536.628V89.5577Z" fill="white"/>
<path d="M524.109 99.0919H459.397V103.53H524.109V99.0919Z" fill="white"/>
<path d="M452.528 161.915H435.921C435.537 161.914 435.17 161.762 434.899 161.491C434.628 161.22 434.476 160.852 434.476 160.469V143.856C434.476 143.472 434.628 143.105 434.899 142.834C435.17 142.563 435.537 142.41 435.921 142.41H452.528C452.718 142.41 452.906 142.448 453.081 142.52C453.256 142.593 453.416 142.699 453.55 142.833C453.684 142.968 453.791 143.127 453.863 143.303C453.936 143.478 453.973 143.666 453.973 143.856V160.471C453.973 160.854 453.82 161.221 453.549 161.492C453.278 161.763 452.911 161.915 452.528 161.915ZM437.366 159.024H451.085V145.298H437.366V159.024Z" fill="#C1D8ED"/>
<path d="M536.628 145.177H459.397V149.615H536.628V145.177Z" fill="white"/>
<path d="M524.109 154.711H459.397V159.149H524.109V154.711Z" fill="white"/>
<path d="M443.291 129.233C443.254 129.233 443.218 129.233 443.181 129.233C442.97 129.218 442.764 129.16 442.576 129.062C442.388 128.965 442.222 128.83 442.089 128.666L438.711 124.519C438.451 124.2 438.328 123.791 438.37 123.382C438.412 122.973 438.614 122.597 438.933 122.337C439.251 122.077 439.66 121.954 440.069 121.996C440.478 122.038 440.854 122.24 441.114 122.559L443.451 125.428L454.978 114.792C455.128 114.654 455.303 114.547 455.494 114.476C455.685 114.406 455.888 114.374 456.092 114.382C456.295 114.391 456.495 114.439 456.68 114.524C456.865 114.61 457.031 114.731 457.169 114.881C457.307 115.03 457.414 115.206 457.484 115.397C457.554 115.588 457.586 115.791 457.578 115.995C457.57 116.199 457.522 116.398 457.436 116.583C457.351 116.768 457.23 116.934 457.08 117.073L444.342 128.822C444.056 129.086 443.68 129.233 443.291 129.233Z" fill="white"/>
<path d="M318.835 225.987C321.089 226.412 334.725 228.793 335.622 226.979C336.164 225.893 330.801 223.477 330.801 223.477" fill="#E98862"/>
<path d="M322.519 215.895C322.519 215.895 342.071 213.112 349.47 221.889C349.658 222.113 349.774 222.388 349.804 222.679C349.833 222.97 349.774 223.263 349.634 223.52C349.494 223.777 349.28 223.986 349.02 224.119C348.76 224.252 348.465 224.303 348.175 224.267C342.217 223.502 333.329 223.382 330.571 226.561C328.964 228.413 320.772 226.352 320.772 226.352" fill="#E98862"/>
<path d="M203.901 293.825L172.353 413.816L176.851 415L208.398 295.008L203.901 293.825Z" fill="#C1D8ED"/>
<path d="M259.807 294.056L255.213 294.776L274.018 414.77L278.613 414.049L259.807 294.056Z" fill="#C1D8ED"/>
<path d="M199.679 179.315C199.679 179.315 161.261 176.887 161.261 210.468C161.261 244.049 166.919 290.98 195.231 296.239C223.542 301.498 265.363 299.913 275.072 298.267C287.002 296.244 292.202 268.559 276.313 266.706C231.222 261.446 253.06 182.957 199.679 179.315Z" fill="#C1D8ED"/>
<path d="M273.122 391.187L271.66 410.154L287.889 411.406L289.351 392.439L273.122 391.187Z" fill="#E98862"/>
<path d="M308.51 414.267C308.928 414.265 309.342 414.181 309.727 414.019C310.113 413.857 310.463 413.621 310.757 413.324C311.051 413.027 311.284 412.675 311.442 412.288C311.6 411.9 311.681 411.486 311.679 411.068C311.679 410.99 311.679 410.913 311.67 410.835C311.622 410.23 311.403 409.651 311.038 409.166C310.673 408.681 310.178 408.311 309.609 408.098L290.663 401.749C290.296 401.627 289.907 401.587 289.523 401.63C289.138 401.672 288.768 401.798 288.437 401.997C285.832 403.805 282.716 404.729 279.548 404.634C277.08 404.459 274.711 403.592 272.711 402.135C272.536 401.99 272.322 401.899 272.097 401.871C271.871 401.844 271.642 401.881 271.437 401.978C271.231 402.076 271.058 402.23 270.937 402.422C270.816 402.615 270.751 402.838 270.752 403.065V412.333C270.752 412.884 270.971 413.412 271.36 413.802C271.749 414.191 272.277 414.41 272.828 414.41H272.835L308.51 414.267Z" fill="#C1D8ED"/>
<path d="M353.828 390.462L337.777 393.163L340.965 412.13L357.017 409.429L353.828 390.462Z" fill="#E98862"/>
<path d="M362.127 394.614L326.385 257.063C325.586 253.989 323.791 251.268 321.28 249.325C318.769 247.382 315.685 246.327 312.511 246.327H234.188V246.377H190.31V259.829C190.31 263.708 191.074 267.549 192.557 271.132C194.041 274.715 196.215 277.971 198.957 280.714C201.698 283.457 204.952 285.632 208.534 287.116C212.115 288.601 215.954 289.365 219.831 289.365H241.232V289.449H278.591L268.304 398.874L296.857 401.561L306.804 295.746L334.367 401.832L362.127 394.614Z" fill="#262626"/>
<path d="M274.164 225.565L325.094 228.869L327.993 213.578L278.004 208.942L256.277 170.069C255.544 168.759 254.922 167.392 254.3 166.025C252.069 161.116 247.635 157.902 239.448 157.55C238.96 157.534 238.177 157.511 237.169 157.495C236.968 161.76 210.56 161.745 210.002 157.395C202.545 157.402 196.422 159.698 192.888 163.234C180.68 175.447 195.663 196.26 195.663 212.545C195.663 228.829 188.299 236.134 188.842 244.493C189.694 257.63 253.508 254.528 256.756 247.06C258.934 242.057 256.823 238.298 255.162 229.351H283.317V221.5M253.613 209.443C253.645 206.703 253.856 203.836 254.147 200.919L260.58 212.442H253.613C253.603 211.472 253.599 210.481 253.613 209.443Z" fill="#367CFF"/>
<path d="M237.17 157.494C236.968 161.759 234.643 168.033 227.497 168.498C217.955 169.134 210.561 161.744 210.003 157.394H210.034C219.412 157.394 231.69 157.41 237.17 157.494Z" fill="#E98862"/>
<path d="M375.405 414.267C375.823 414.265 376.236 414.181 376.622 414.019C377.007 413.857 377.357 413.62 377.651 413.323C377.946 413.026 378.179 412.674 378.337 412.286C378.495 411.899 378.575 411.484 378.573 411.066C378.573 410.989 378.573 410.911 378.564 410.833C378.517 410.228 378.297 409.649 377.932 409.164C377.567 408.68 377.071 408.309 376.503 408.097L357.558 401.748C357.191 401.627 356.802 401.586 356.417 401.629C356.033 401.671 355.662 401.797 355.331 401.996C352.727 403.804 349.611 404.728 346.443 404.633C343.975 404.458 341.605 403.592 339.606 402.134C339.43 401.99 339.217 401.899 338.991 401.871C338.766 401.844 338.537 401.881 338.332 401.978C338.127 402.076 337.953 402.23 337.832 402.422C337.711 402.614 337.647 402.837 337.647 403.064V412.332C337.647 412.883 337.866 413.411 338.255 413.801C338.644 414.19 339.172 414.409 339.723 414.409H339.731L375.405 414.267Z" fill="#C1D8ED"/>
<path d="M153.183 236.867H145.904V414.412H153.183V236.867Z" fill="#DEE8F5"/>
<path d="M504.284 236.867H497.005V414.412H504.284V236.867Z" fill="#C1D8ED"/>
<path d="M504.283 234.642H438.636V402.272H504.283V234.642Z" fill="#C1D8ED"/>
<path d="M432.809 390.132H425.53V414.412H432.809V390.132Z" fill="#C1D8ED"/>
<path d="M514.347 229.534H135.84V239.547H514.347V229.534Z" fill="#DEE8F5"/>
<path d="M442.276 236.867H434.997V414.412H442.276V236.867Z" fill="#DEE8F5"/>
<path d="M370.801 236.867H363.522V414.412H370.801V236.867Z" fill="#DEE8F5"/>
<path d="M438.636 239.561H367.161V402.272H438.636V239.561Z" fill="#DEE8F5"/>
<path d="M363.559 184.713L354.147 224.239C354.001 224.854 353.996 225.494 354.133 226.112C354.269 226.729 354.543 227.307 354.935 227.803C355.326 228.299 355.825 228.7 356.394 228.976C356.962 229.252 357.586 229.395 358.217 229.395H413.702C414.619 229.395 415.51 229.094 416.239 228.538C416.968 227.982 417.494 227.202 417.737 226.317L428.582 186.792C428.752 186.171 428.777 185.518 428.654 184.886C428.531 184.253 428.264 183.658 427.874 183.146C427.483 182.633 426.98 182.218 426.403 181.932C425.826 181.646 425.191 181.497 424.547 181.497H367.63C366.689 181.497 365.775 181.814 365.036 182.398C364.298 182.981 363.777 183.797 363.559 184.713Z" fill="#9EBCEA"/>
<path d="M334.395 229.398H401.456C402.108 229.398 402.733 229.139 403.194 228.678C403.655 228.217 403.914 227.591 403.914 226.939C403.914 226.286 403.655 225.661 403.194 225.199C402.733 224.738 402.108 224.479 401.456 224.479H334.395C333.743 224.479 333.117 224.738 332.656 225.199C332.195 225.661 331.936 226.286 331.936 226.939C331.936 227.591 332.195 228.217 332.656 228.678C333.117 229.139 333.743 229.398 334.395 229.398Z" fill="#9EBCEA"/>
<path d="M393.636 211.624C397.261 211.624 400.198 208.685 400.198 205.059C400.198 201.433 397.261 198.494 393.636 198.494C390.012 198.494 387.074 201.433 387.074 205.059C387.074 208.685 390.012 211.624 393.636 211.624Z" fill="white"/>
<path d="M278.004 228.869C280.297 228.869 294.136 228.681 294.683 226.732C295.012 225.564 289.298 224.184 289.298 224.184" fill="#E98862"/>
<path d="M290.8 229.678C290.8 224.375 295.97 220.077 302.349 220.077C308.728 220.077 313.898 224.375 313.898 229.678" fill="#DEE8F5"/>
<path d="M279.752 218.27C279.752 218.27 298.45 211.911 307.345 219.165C307.572 219.35 307.737 219.599 307.82 219.879C307.902 220.16 307.898 220.459 307.809 220.737C307.719 221.015 307.547 221.26 307.316 221.439C307.085 221.618 306.805 221.723 306.514 221.741C300.517 222.094 291.76 223.624 289.639 227.259C288.403 229.376 279.97 228.869 279.97 228.869" fill="#E98862"/>
<path d="M283.317 215.692H260.323V229.351H283.317V215.692Z" fill="#367CFF"/>
<path d="M556.032 324.456L537.928 412.798C537.813 413.259 537.546 413.668 537.172 413.961C536.797 414.253 536.335 414.412 535.86 414.412C535.535 414.412 535.215 414.338 534.924 414.196C534.632 414.053 534.377 413.846 534.177 413.59C533.978 413.334 533.839 413.036 533.772 412.719C533.705 412.401 533.712 412.073 533.791 411.758L552.152 322.396L556.032 324.456Z" fill="#C1D8ED"/>
<path d="M598.568 324.315L616.67 412.657C616.786 413.118 617.052 413.527 617.427 413.82C617.802 414.112 618.263 414.271 618.739 414.271C619.063 414.271 619.383 414.197 619.675 414.055C619.966 413.912 620.222 413.705 620.421 413.449C620.621 413.193 620.759 412.895 620.826 412.578C620.893 412.26 620.887 411.931 620.808 411.617L602.449 322.255L598.568 324.315Z" fill="#C1D8ED"/>
<path d="M617.596 315.816H537.004C534.967 315.816 533.315 317.468 533.315 319.507V327.633C533.315 329.671 534.967 331.324 537.004 331.324H617.596C619.634 331.324 621.286 329.671 621.286 327.633V319.507C621.286 317.468 619.634 315.816 617.596 315.816Z" fill="#DEE8F5"/>
<path d="M595.792 272.392C593.23 271.553 590.599 272.494 588.084 274.408C591.398 266.033 592.766 258.473 587.101 258.133C583.136 257.895 580.099 260.938 577.793 265.263C576.981 257.658 574.888 251.985 570.197 253.864C565.048 255.928 564.266 263.005 565.047 270.408C562.778 266.627 560.337 264.519 558.119 266.737C551.502 273.357 567.744 292.016 567.744 292.016H571.775L574.077 294.517C573.612 295.502 573.356 296.089 573.356 296.089L576.287 302.039C576.287 302.039 606.426 275.874 595.792 272.392Z" fill="#8DDBE0"/>
<path d="M588.56 315.374H565.73L561.909 288.711H592.381L588.56 315.374Z" fill="#C1D8ED"/>
<path d="M82.4482 380.178C77.5015 378.757 73.7779 374.329 72.2983 369.399C70.8186 364.468 71.3403 359.116 72.7858 354.174C73.9647 350.142 75.7521 346.244 76.1924 342.066C77.6589 328.152 64.1698 313.936 70.5171 301.47C72.5703 297.437 76.542 294.288 77.2512 289.819C77.8379 286.124 76.018 282.53 75.1134 278.903C73.8686 273.906 74.4996 268.237 77.7395 264.236C80.9794 260.236 87.1019 258.487 91.5665 261.049C97.4061 264.401 97.9123 272.674 96.4117 279.239C94.9111 285.804 92.1292 292.559 93.9631 299.039C95.711 305.215 101.399 309.866 102.418 316.204C103.266 321.473 100.696 326.609 99.5655 331.825C97.7906 340.022 99.5973 348.519 99.6748 356.905C99.7523 365.292 97.386 374.699 82.4482 380.178Z" fill="#8DDBE0"/>
<path d="M74.8143 380.974C71.8708 380.038 69.2293 378.335 67.161 376.04C65.0927 373.745 63.6721 370.941 63.0451 367.915C62.077 362.924 63.266 357.319 60.5361 353.032C56.8366 347.222 53.0425 346.565 48.4376 341.445C41.3555 333.571 41.1067 330.084 41.5741 315.502C41.7717 309.335 33.2603 302.375 36.2577 296.45C38.8984 291.23 46.9261 291.203 51.4783 294.877C56.0305 298.55 58.0302 304.438 60.0145 309.942C61.9987 315.446 64.4984 321.27 69.5265 324.258C72.5424 326.049 76.49 326.877 78.1557 329.965C79.4943 332.447 78.82 335.475 78.2821 338.242C76.9295 345.199 77.269 353.686 83.104 357.706C85.7393 359.519 89.1846 360.144 91.3495 362.496C93.4895 364.823 93.8345 368.269 93.6895 371.427C93.4048 377.499 91.7327 383.425 88.8017 388.749" fill="#DEE8F5"/>
<path d="M81.8506 385.819C79.277 382.751 77.7259 378.956 77.414 374.963C77.1022 370.97 78.0452 366.98 80.1113 363.549C83.6837 357.889 90.3426 353.987 91.7378 347.438C92.9826 341.605 89.5295 335.573 90.5635 329.704C91.6874 323.316 97.5852 319.125 102.268 314.642C103.487 313.553 104.536 312.286 105.379 310.884C107.439 307.174 106.865 302.622 107.564 298.435C108.904 290.418 115.506 283.307 123.522 281.982C130.553 280.819 135.59 284.86 135.59 292.302C135.59 301.117 128.988 304.895 125.621 308.885C120.784 314.663 118.217 322.007 118.401 329.541C118.638 337.957 122.219 346.918 118.393 354.416C115.585 359.922 109.586 362.853 104.873 366.846C101.312 369.899 98.413 373.648 96.3547 377.864C94.2964 382.08 93.1225 386.673 92.9051 391.36" fill="white"/>
<path d="M104.527 371.996H62.1305V414.412H104.527V371.996Z" fill="#0CBC8B"/>
<g opacity="0.42">
<path d="M104.527 380.267H62.1305V388.546H104.527V380.267Z" fill="white"/>
</g>
<path d="M212.281 161.812C212.281 161.812 218.274 158.633 216.936 142.305L229.319 140.007C229.319 140.007 227.924 154.647 234.193 159.295L212.281 161.812Z" fill="#E98862"/>
<g opacity="0.15">
<path d="M231.655 156.234L221.369 148.36L229.448 148.277C229.682 151.044 230.43 153.743 231.655 156.234Z" fill="black"/>
</g>
<path d="M209.91 135.973C210.767 140.927 213.469 145.618 217.837 147.217C223.022 149.116 226.863 149.245 232.841 149.245C240.999 149.245 240.729 140.733 240.959 132.156C241.191 123.544 240.504 114.306 237.28 111.305C230.847 105.315 211.955 109.109 209.657 119.127C208.469 124.31 209.094 131.258 209.91 135.973Z" fill="#E98862"/>
<path d="M245.331 116.285C245.331 116.285 248.672 115.539 247.757 112.206C247.151 109.995 244.32 110.486 244.32 110.486C244.32 110.486 247.001 109.995 247.001 107.654C247.001 106.18 245.867 103.68 242.45 105.109C238.44 106.785 233.866 106.569 230.389 105.984C228.421 105.553 226.424 105.271 224.415 105.141H224.405C222.095 105.1 219.791 105.408 217.573 106.055C211.357 107.916 201.949 113.491 203.948 126.134C206.181 140.242 212.798 145.638 215.71 147.369C215.882 147.472 216.076 147.536 216.276 147.554C216.476 147.572 216.678 147.544 216.866 147.472C217.054 147.401 217.223 147.288 217.361 147.141C217.499 146.995 217.602 146.819 217.661 146.627C218.487 143.982 219.909 137.329 219.512 123.61C238.62 122.672 244.117 122.387 244.117 122.387C244.117 122.387 248.613 122.556 248.613 119.269C248.613 115.981 245.331 116.285 245.331 116.285Z" fill="#0F1011"/>
<path d="M229.302 132.157C229.922 132.157 230.425 131.654 230.425 131.034C230.425 130.413 229.922 129.91 229.302 129.91C228.682 129.91 228.179 130.413 228.179 131.034C228.179 131.654 228.682 132.157 229.302 132.157Z" fill="#0F1011"/>
<path d="M238.162 131.431C238.782 131.431 239.285 130.928 239.285 130.307C239.285 129.687 238.782 129.183 238.162 129.183C237.542 129.183 237.039 129.687 237.039 130.307C237.039 130.928 237.542 131.431 238.162 131.431Z" fill="#0F1011"/>
<path d="M240.108 127.912H240.101L237.127 127.875C236.987 127.873 236.853 127.816 236.755 127.715C236.658 127.615 236.603 127.48 236.605 127.34C236.609 127.201 236.666 127.068 236.766 126.971C236.866 126.874 237 126.819 237.139 126.819L240.115 126.856C240.255 126.857 240.388 126.914 240.487 127.013C240.585 127.113 240.64 127.247 240.639 127.387C240.638 127.528 240.582 127.662 240.482 127.76C240.383 127.858 240.248 127.913 240.108 127.912Z" fill="#0F1011"/>
<path d="M226.877 128.997C226.748 128.997 226.624 128.949 226.527 128.863C226.431 128.777 226.37 128.659 226.355 128.531C226.339 128.403 226.372 128.273 226.446 128.167C226.519 128.061 226.629 127.986 226.755 127.956L229.688 127.25C229.823 127.219 229.965 127.243 230.083 127.316C230.201 127.39 230.286 127.506 230.318 127.641C230.351 127.776 230.329 127.919 230.257 128.038C230.185 128.157 230.07 128.243 229.935 128.277L227.001 128.983C226.961 128.992 226.919 128.997 226.877 128.997Z" fill="#0F1011"/>
<path d="M223.462 133.783C223.522 134.412 223.457 135.046 223.27 135.649C223.083 136.252 222.778 136.812 222.373 137.296C221.968 137.78 221.471 138.178 220.911 138.469C220.351 138.759 219.738 138.935 219.109 138.986C218.481 139.038 217.848 138.963 217.248 138.768C216.648 138.573 216.093 138.26 215.615 137.848C215.137 137.436 214.745 136.933 214.463 136.368C214.181 135.804 214.014 135.189 213.971 134.559C213.909 133.933 213.974 133.302 214.161 132.702C214.348 132.101 214.654 131.545 215.06 131.066C215.466 130.586 215.965 130.194 216.527 129.911C217.088 129.629 217.7 129.462 218.327 129.422C221.718 129.315 223.244 131.161 223.462 133.783Z" fill="#E98862"/>
<g opacity="0.15">
<path d="M234.287 137.266C234.195 137.266 234.105 137.233 234.034 137.172C233.964 137.112 233.918 137.028 233.904 136.936C233.89 136.844 233.91 136.75 233.959 136.672C234.009 136.593 234.085 136.535 234.173 136.508L236.458 135.806L234.859 132.246C234.817 132.153 234.814 132.046 234.851 131.95C234.887 131.853 234.96 131.776 235.054 131.734C235.148 131.691 235.255 131.688 235.351 131.725C235.447 131.761 235.525 131.835 235.567 131.929L237.344 135.889C237.367 135.939 237.379 135.993 237.378 136.048C237.378 136.103 237.367 136.158 237.344 136.208C237.321 136.258 237.288 136.302 237.247 136.339C237.206 136.375 237.157 136.402 237.105 136.418L234.401 137.249C234.364 137.26 234.326 137.266 234.287 137.266Z" fill="black"/>
</g>
<path d="M229.821 139.883C229.821 139.883 233.967 140.321 236.875 139.305C236.875 139.305 236.851 142.036 233.571 142.306C230.291 142.576 229.821 139.883 229.821 139.883Z" fill="white"/>
<path d="M451.989 51.1241C451.989 53.6572 451.361 55.6039 450.106 56.964C448.85 58.3242 447.05 59.0045 444.707 59.005C442.363 59.005 440.564 58.3247 439.308 56.964C438.053 55.6033 437.426 53.6495 437.426 51.1024C437.426 48.5558 438.055 46.6104 439.314 45.2663C440.573 43.9222 442.377 43.2501 444.728 43.2501C447.078 43.2501 448.876 43.9268 450.121 45.2803C451.366 46.6337 451.989 48.5816 451.989 51.1241ZM440.828 51.1241C440.733 52.4824 441.073 53.8355 441.8 54.9866C442.143 55.4237 442.587 55.7705 443.093 55.9966C443.6 56.2227 444.155 56.3214 444.709 56.2839C447.297 56.2839 448.591 54.564 448.59 51.1241C448.59 47.6842 447.303 45.9606 444.73 45.9534C444.173 45.9165 443.616 46.0158 443.107 46.2428C442.598 46.4698 442.152 46.8176 441.807 47.2561C441.074 48.4069 440.73 49.7629 440.826 51.1241H440.828Z" fill="white"/>
<path d="M465.705 58.7964H462.514V51.9608C462.56 51.2967 462.403 50.6344 462.064 50.0617C461.897 49.8446 461.678 49.6728 461.428 49.5621C461.178 49.4514 460.903 49.4053 460.631 49.4282C460.258 49.3959 459.883 49.4615 459.543 49.6184C459.203 49.7753 458.91 50.0182 458.693 50.323C458.223 51.2378 458.016 52.2653 458.096 53.2907V58.7964H454.907V47.0941H457.344L457.773 48.5915H457.95C458.304 48.0278 458.816 47.5816 459.423 47.3089C460.092 47.0096 460.819 46.8614 461.552 46.8746C462.117 46.8337 462.685 46.9108 463.218 47.1009C463.752 47.291 464.241 47.5899 464.653 47.9789C465.409 48.8614 465.789 50.0061 465.709 51.166L465.705 58.7964Z" fill="white"/>
<path d="M472.181 58.7964H468.99V42.5119H472.181V58.7964Z" fill="white"/>
<path d="M475.393 44.069C475.393 43.0299 475.972 42.5101 477.129 42.5096C478.287 42.5091 478.866 43.0289 478.867 44.069C478.879 44.2815 478.847 44.4943 478.772 44.6935C478.697 44.8928 478.582 45.0742 478.432 45.226C478.068 45.5271 477.601 45.6752 477.129 45.6393C475.971 45.6393 475.393 45.1159 475.393 44.069ZM478.72 58.7964H475.529V47.0941H478.72V58.7964Z" fill="white"/>
<path d="M492.865 58.7964H489.674V51.9608C489.72 51.2967 489.563 50.6344 489.223 50.0617C489.057 49.8445 488.838 49.6727 488.588 49.562C488.337 49.4513 488.063 49.4053 487.79 49.4282C487.417 49.3962 487.043 49.4618 486.703 49.6187C486.363 49.7757 486.07 50.0184 485.852 50.323C485.383 51.238 485.177 52.2654 485.256 53.2907V58.7964H482.065V47.0941H484.503L484.932 48.5915H485.11C485.463 48.0278 485.976 47.5814 486.583 47.3089C487.252 47.0096 487.979 46.8614 488.712 46.8746C489.277 46.8336 489.844 46.9106 490.378 47.1007C490.912 47.2908 491.4 47.5898 491.812 47.9789C492.569 48.8613 492.949 50.006 492.869 51.166L492.865 58.7964Z" fill="white"/>
<path d="M501.444 59.005C500.64 59.0528 499.836 58.9395 499.077 58.6717C498.318 58.4039 497.621 57.987 497.026 57.4456C496.472 56.857 496.045 56.161 495.772 55.4007C495.498 54.6403 495.384 53.8319 495.435 53.0255C495.33 51.3775 495.857 49.7514 496.908 48.4782C497.429 47.9331 498.063 47.5073 498.764 47.2299C499.466 46.9526 500.219 46.8303 500.972 46.8715C501.678 46.8292 502.385 46.9329 503.049 47.176C503.713 47.419 504.32 47.7964 504.832 48.2844C505.311 48.8101 505.681 49.4261 505.919 50.0964C506.157 50.7667 506.258 51.4778 506.218 52.188V53.7389H498.675C498.662 54.5242 498.951 55.2845 499.481 55.8637C499.762 56.1287 500.095 56.3333 500.458 56.4648C500.822 56.5963 501.208 56.6519 501.594 56.6283C502.266 56.6316 502.937 56.5579 503.592 56.4088C504.27 56.2437 504.93 56.0085 505.559 55.707V58.1776C504.991 58.4586 504.39 58.6671 503.77 58.798C503.004 58.9471 502.224 59.0165 501.444 59.005ZM500.994 49.1451C500.698 49.1295 500.402 49.179 500.127 49.2902C499.853 49.4014 499.605 49.5716 499.404 49.7888C498.986 50.3069 498.754 50.9502 498.745 51.6157H503.222C503.251 50.9507 503.03 50.299 502.602 49.7888C502.396 49.5728 502.145 49.4037 501.868 49.2926C501.591 49.1816 501.293 49.1313 500.994 49.1451Z" fill="white"/>
<path d="M520.527 58.7964H517.284V46.1945H513.13V43.4929H524.679V46.1945H520.527V58.7964Z" fill="white"/>
<path d="M532.077 59.005C531.274 59.0528 530.469 58.9395 529.711 58.6717C528.952 58.4039 528.254 57.987 527.659 57.4456C527.106 56.857 526.679 56.161 526.405 55.4007C526.132 54.6403 526.017 53.8319 526.069 53.0255C525.963 51.3775 526.49 49.7514 527.541 48.4782C528.063 47.9331 528.696 47.5073 529.398 47.2299C530.099 46.9526 530.853 46.8303 531.606 46.8715C532.312 46.8292 533.019 46.9329 533.683 47.176C534.347 47.419 534.954 47.7964 535.466 48.2844C535.944 48.8105 536.312 49.4267 536.55 50.097C536.787 50.7673 536.888 51.4781 536.847 52.188V53.7389H529.304C529.291 54.5241 529.579 55.2842 530.109 55.8637C530.391 56.1287 530.723 56.3332 531.087 56.4647C531.45 56.5962 531.837 56.6519 532.223 56.6283C532.895 56.6316 533.566 56.5579 534.221 56.4088C534.899 56.2437 535.559 56.0085 536.188 55.707V58.1776C535.62 58.4586 535.019 58.6671 534.399 58.798C533.634 58.9468 532.856 59.0161 532.077 59.005ZM531.628 49.1451C531.332 49.1295 531.036 49.179 530.761 49.2902C530.486 49.4014 530.239 49.5716 530.037 49.7888C529.619 50.3069 529.387 50.9502 529.378 51.6157H533.856C533.884 50.9507 533.663 50.299 533.236 49.7888C533.029 49.5728 532.779 49.4037 532.501 49.2926C532.224 49.1816 531.926 49.1313 531.628 49.1451Z" fill="white"/>
<path d="M547.603 55.3209C547.634 55.8453 547.536 56.3693 547.318 56.8472C547.101 57.3251 546.769 57.7425 546.353 58.0629C545.239 58.7686 543.928 59.0988 542.612 59.005C541.883 59.0151 541.155 58.9575 540.437 58.8329C539.859 58.7241 539.294 58.5538 538.752 58.325V55.6884C539.396 55.9844 540.067 56.218 540.755 56.3863C541.395 56.5602 542.054 56.655 542.717 56.6686C543.875 56.6686 544.454 56.3326 544.454 55.6605C544.458 55.5481 544.44 55.436 544.4 55.3309C544.36 55.2258 544.299 55.1298 544.221 55.0487C543.984 54.8327 543.716 54.6527 543.426 54.5144C543.049 54.3149 542.547 54.0822 541.92 53.8165C541.22 53.5469 540.555 53.1953 539.937 52.7689C539.544 52.483 539.227 52.1035 539.017 51.6646C538.811 51.1804 538.713 50.6574 538.729 50.1315C538.709 49.6597 538.81 49.1906 539.021 48.7684C539.232 48.3462 539.548 47.9848 539.937 47.7183C540.965 47.09 542.161 46.7923 543.363 46.8653C544.785 46.8682 546.188 47.1824 547.475 47.7858L546.513 50.0889C545.927 49.8376 545.379 49.6309 544.87 49.4685C544.366 49.3087 543.84 49.2274 543.311 49.2274C542.37 49.2274 541.899 49.4822 541.898 49.992C541.905 50.1443 541.95 50.2925 542.03 50.4224C542.11 50.5524 542.221 50.6599 542.354 50.7348C542.99 51.1037 543.656 51.4151 544.347 51.6654C545.056 51.9277 545.731 52.2759 546.355 52.7022C546.754 52.9909 547.077 53.3715 547.297 53.8118C547.513 54.2848 547.618 54.8011 547.603 55.3209Z" fill="white"/>
<path d="M555.021 56.4623C555.705 56.4405 556.382 56.3169 557.029 56.0955V58.4692C556.101 58.8498 555.103 59.0313 554.1 59.0019C553.593 59.0482 553.082 58.9858 552.601 58.8189C552.12 58.652 551.679 58.3845 551.31 58.0342C550.668 57.2081 550.357 56.1726 550.436 55.1293V49.491H548.911V48.1402L550.668 47.0739L551.589 44.6033H553.63V47.0941H556.904V49.491H553.63V55.1348C553.614 55.3206 553.64 55.5077 553.706 55.6822C553.772 55.8567 553.876 56.0141 554.011 56.1428C554.298 56.368 554.657 56.4815 555.021 56.4623Z" fill="white"/>
</svg>
