<svg width="690" height="400" viewBox="0 0 690 400" fill="none" xmlns="http://www.w3.org/2000/svg">
<g opacity="0.8" clip-path="url(#clip0_2_2)">
<path d="M100.22 175.442L90.1156 177.833L102.784 231.466L112.889 229.075L100.22 175.442Z" fill="#F0F6FF"/>
<path d="M111.335 171.28L102.659 218.355L108.269 219.391L116.945 172.316L111.335 171.28Z" fill="#C1D8ED"/>
<path d="M111.338 171.264L110.351 176.457L115.955 177.524L116.942 172.332L111.338 171.264Z" fill="#DEE8F5"/>
<path d="M93.9716 183.243L90.8562 184.472L109.035 230.66L112.15 229.431L93.9716 183.243Z" fill="#0CBC8B"/>
<path d="M117.391 203.454H89.9881V238.509H117.391V203.454Z" fill="#C1D8ED"/>
<path d="M689 400.439H1C8.53894 381.197 22.4577 364.872 42.0861 360.029C70.7947 352.954 101.177 372.408 129.822 365.093C146.096 360.943 158.908 348.844 172.371 338.799C223.163 300.895 292.765 289.692 352.867 309.754C384.283 320.237 412.909 338.567 445.091 346.359C486.704 356.44 530.223 348.08 573.019 346.703C614.698 345.362 674.415 362.36 689 400.439Z" fill="white"/>
<path d="M426.079 240.557C426.079 240.557 418.345 236.452 420.072 215.374L404.093 212.408C404.093 212.408 405.894 231.307 397.806 237.306L426.079 240.557Z" fill="#E98862"/>
<g opacity="0.15">
<path d="M401.08 233.36L414.352 223.195L403.926 223.087C403.625 226.659 402.659 230.143 401.08 233.36V233.36Z" fill="black"/>
</g>
<path d="M429.139 207.204C428.032 213.599 424.545 219.655 418.909 221.72C412.766 224.161 406.12 225.06 399.55 224.339C382.058 222.904 385.518 183.095 393.822 175.36C402.126 167.625 426.499 172.524 429.464 185.458C430.998 192.147 430.191 201.115 429.139 207.204Z" fill="#E98862"/>
<path d="M388.048 176.735C388.57 175.905 389.302 175.229 390.169 174.773C397.937 170.545 412.331 169.082 419.245 171.153C427.266 173.555 437.325 180.285 434.747 196.605C434.638 197.292 434.521 197.954 434.4 198.607C436.933 198.173 439.537 198.446 441.926 199.395C444.314 200.345 446.396 201.934 447.942 203.988C449.489 206.043 450.44 208.484 450.693 211.043C450.946 213.603 450.49 216.184 449.375 218.501C448.26 220.819 446.529 222.785 444.372 224.184C442.216 225.582 439.716 226.36 437.147 226.431C434.578 226.502 432.039 225.864 429.808 224.587C427.577 223.31 425.74 221.443 424.499 219.191C423.309 220.22 422.024 221.132 420.66 221.917C419.703 222.485 419.471 222.017 419.139 220.959C417.979 217.244 416.839 202.551 417.749 191.883L398.901 191.23L395.616 181.878L392.925 191.23H386.506C385.648 186.161 384.761 180.415 388.048 176.735Z" fill="#0F1011"/>
<path d="M404.116 202.278C404.917 202.278 405.566 201.628 405.566 200.827C405.566 200.026 404.917 199.377 404.116 199.377C403.316 199.377 402.667 200.026 402.667 200.827C402.667 201.628 403.316 202.278 404.116 202.278Z" fill="#0F1011"/>
<path d="M392.684 201.339C393.484 201.339 394.133 200.689 394.133 199.888C394.133 199.087 393.484 198.438 392.684 198.438C391.884 198.438 391.235 199.087 391.235 199.888C391.235 200.689 391.884 201.339 392.684 201.339Z" fill="#0F1011"/>
<path d="M390.173 196.798C389.992 196.799 389.818 196.728 389.69 196.601C389.561 196.474 389.488 196.302 389.487 196.121C389.486 195.94 389.556 195.766 389.683 195.637C389.81 195.509 389.983 195.436 390.164 195.434L394.003 195.386C394.182 195.389 394.353 195.46 394.481 195.585C394.609 195.71 394.685 195.879 394.692 196.058C394.693 196.148 394.677 196.237 394.644 196.32C394.611 196.403 394.562 196.479 394.499 196.543C394.437 196.607 394.362 196.658 394.28 196.694C394.198 196.729 394.11 196.748 394.02 196.749L390.182 196.798H390.173Z" fill="#0F1011"/>
<path d="M407.244 198.198C407.19 198.198 407.137 198.192 407.085 198.18L403.299 197.267C403.211 197.247 403.128 197.21 403.055 197.158C402.981 197.105 402.919 197.039 402.872 196.962C402.824 196.885 402.792 196.8 402.778 196.711C402.764 196.622 402.767 196.531 402.788 196.443C402.809 196.355 402.848 196.273 402.901 196.2C402.954 196.127 403.021 196.065 403.099 196.019C403.176 195.972 403.262 195.941 403.351 195.928C403.44 195.915 403.531 195.92 403.618 195.942L407.403 196.854C407.565 196.893 407.707 196.99 407.802 197.127C407.897 197.264 407.939 197.431 407.919 197.597C407.9 197.762 407.82 197.915 407.696 198.026C407.571 198.137 407.41 198.198 407.244 198.198V198.198Z" fill="#0F1011"/>
<path d="M411.651 204.376C411.543 205.988 412.072 207.578 413.126 208.803C414.179 210.027 415.672 210.787 417.281 210.919C418.89 211.05 420.486 210.543 421.724 209.506C422.962 208.469 423.743 206.986 423.897 205.377C423.977 204.57 423.894 203.754 423.652 202.98C423.411 202.205 423.016 201.487 422.492 200.868C421.967 200.25 421.324 199.743 420.599 199.378C419.875 199.014 419.085 198.799 418.276 198.746C413.902 198.612 411.932 200.991 411.651 204.376Z" fill="#E98862"/>
<g opacity="0.15">
<path d="M397.684 208.872C397.634 208.872 397.584 208.864 397.537 208.85L394.049 207.777C393.981 207.756 393.919 207.721 393.866 207.674C393.813 207.627 393.77 207.569 393.741 207.505C393.712 207.44 393.697 207.37 393.696 207.3C393.696 207.229 393.711 207.159 393.74 207.094L396.033 201.981C396.088 201.86 396.188 201.766 396.312 201.719C396.436 201.672 396.574 201.676 396.695 201.731C396.816 201.785 396.91 201.886 396.957 202.01C397.004 202.134 397 202.272 396.945 202.393L394.884 206.987L397.832 207.894C397.945 207.93 398.043 208.005 398.106 208.106C398.169 208.207 398.194 208.328 398.176 208.446C398.158 208.564 398.099 208.672 398.009 208.75C397.919 208.828 397.804 208.871 397.685 208.872H397.684Z" fill="black"/>
</g>
<path d="M403.45 212.25C403.45 212.25 398.101 212.815 394.349 211.504C394.349 211.504 394.379 215.03 398.612 215.378C402.844 215.725 403.45 212.25 403.45 212.25Z" fill="white"/>
<path d="M364.511 395.35C362.611 395.031 341.171 391.366 341.171 391.366L344.707 370.644C344.707 370.644 366.083 374.299 367.978 374.617L364.511 395.35Z" fill="#E98862"/>
<path d="M328.941 415.227C328.85 415.785 328.875 416.356 329.015 416.904C329.155 417.451 329.405 417.965 329.752 418.411C330.099 418.857 330.534 419.228 331.03 419.498C331.525 419.769 332.072 419.934 332.634 419.984C333.414 420.053 334.198 419.897 334.892 419.536C335.587 419.174 336.163 418.621 336.555 417.943L348.668 395.164C348.901 394.722 349.036 394.235 349.063 393.737C349.091 393.238 349.01 392.74 348.827 392.275C347.082 388.572 346.57 384.406 347.367 380.39C348.117 377.284 349.723 374.451 352.003 372.214C352.224 372.021 352.385 371.769 352.468 371.487C352.551 371.206 352.553 370.906 352.472 370.624C352.392 370.341 352.233 370.088 352.014 369.892C351.795 369.697 351.525 369.568 351.236 369.52L339.442 367.544C339.094 367.486 338.739 367.497 338.395 367.577C338.051 367.656 337.727 367.803 337.44 368.009C337.153 368.214 336.91 368.474 336.724 368.774C336.538 369.074 336.413 369.408 336.356 369.756L328.941 415.227Z" fill="#C1D8ED"/>
<path d="M430.874 339.302C439.77 339.673 448.83 339.934 457.892 340.158L471.509 340.458L485.111 340.703L486.466 340.727C492.083 340.833 497.452 343.067 501.49 346.979C505.527 350.89 507.932 356.189 508.221 361.805C508.51 367.422 506.66 372.939 503.045 377.245C499.431 381.551 494.319 384.324 488.742 385.007L354.325 401.344L348.852 361.586L482.669 340.909L486.302 385.212L472.491 386.106L458.689 386.941C449.473 387.474 440.254 387.973 430.87 388.358L430.874 339.302Z" fill="#262626"/>
<path d="M464.781 386.642C446.223 383.94 444.372 383.439 443.763 383.279L449.224 362.98C449.163 362.963 449.083 362.941 448.985 362.92C450.506 363.252 459.937 364.694 467.802 365.839L464.781 386.642Z" fill="#E98862"/>
<path d="M487.961 404.713C488.156 405.243 488.239 405.808 488.206 406.373C488.172 406.937 488.023 407.488 487.768 407.993C487.512 408.497 487.155 408.942 486.72 409.302C486.284 409.662 485.779 409.929 485.237 410.084V410.084C484.484 410.3 483.685 410.296 482.935 410.073C482.184 409.85 481.513 409.417 481 408.825L464.788 388.762C464.477 388.372 464.253 387.92 464.133 387.437C464.012 386.953 463.997 386.449 464.088 385.959C465.1 381.991 464.812 377.804 463.268 374.012C461.943 371.105 459.829 368.629 457.167 366.866C456.913 366.719 456.706 366.502 456.571 366.241C456.436 365.981 456.377 365.687 456.403 365.394C456.428 365.101 456.536 364.822 456.714 364.588C456.893 364.355 457.134 364.177 457.409 364.075L468.61 359.895C468.941 359.772 469.292 359.715 469.644 359.728C469.996 359.741 470.342 359.823 470.663 359.97C470.983 360.117 471.271 360.326 471.511 360.585C471.75 360.843 471.937 361.147 472.059 361.478L487.961 404.713Z" fill="#C1D8ED"/>
<path d="M401.027 384.75C395.395 384.271 389.765 383.925 384.135 383.599C378.506 383.299 372.876 382.999 367.25 382.798L358.809 382.473L350.369 382.23C344.742 382.042 339.117 381.964 333.493 381.857L335.442 341.404C345.972 342.878 356.516 344.232 367.058 345.62C377.599 347.007 388.151 348.286 398.703 349.584L414.538 351.452L430.385 353.23C440.954 354.367 451.525 355.496 462.119 356.427L457.47 396.3C446.947 394.764 436.4 393.427 425.853 392.095L410.023 390.173L394.183 388.341C383.617 387.173 373.053 385.988 362.479 384.906C351.905 383.823 341.33 382.714 330.743 381.721C325.667 381.244 320.957 378.865 317.557 375.061C314.157 371.258 312.318 366.309 312.406 361.206C312.495 356.103 314.505 351.221 318.034 347.538C321.564 343.855 326.353 341.641 331.443 341.34L332.695 341.269C338.312 340.939 343.93 340.639 349.545 340.229L357.969 339.652L366.39 338.994C372.004 338.57 377.617 338.045 383.231 337.524C388.842 336.976 394.454 336.408 400.064 335.706L401.027 384.75Z" fill="#262626"/>
<path d="M451.31 333.161L454.271 382.919L368.77 381.914L375.224 337.861L451.31 333.161Z" fill="#262626"/>
<path d="M369.155 341.213C373.345 350.853 455.685 354.858 456.785 337.899C457.485 327.108 447.984 317.688 447.984 296.655C447.984 275.623 467.317 257.774 451.565 242.007C446.994 237.432 439.103 234.479 429.482 234.469C428.761 240.085 394.697 240.105 394.437 234.599C393.137 234.619 392.127 234.639 391.497 234.669C358.313 236.101 372.894 264.892 373.215 292.661C373.605 325.156 364.833 331.282 369.155 341.213Z" fill="#367CFF"/>
<path d="M394.437 234.599C394.697 240.105 397.688 248.204 406.919 248.814C419.22 249.625 428.761 240.085 429.482 234.469H429.452C417.34 234.469 401.498 234.489 394.437 234.599Z" fill="#E98862"/>
<path d="M478.042 330.146C475.465 330.148 472.971 329.235 471.004 327.569L436.043 298.007L448.612 283.115L436.229 257.312L455.886 247.86L487.869 314.506C488.668 316.17 489.032 318.009 488.928 319.852C488.824 321.695 488.254 323.481 487.272 325.044C486.29 326.606 484.928 327.894 483.314 328.786C481.7 329.679 479.886 330.147 478.042 330.146V330.146Z" fill="#367CFF"/>
<path d="M336.101 337.003C334.255 337.001 332.442 336.512 330.845 335.585C329.247 334.658 327.923 333.326 327.004 331.723C326.085 330.12 325.605 328.303 325.611 326.455C325.618 324.608 326.111 322.794 327.041 321.198L373.459 241.488L391.604 252.075L368.546 291.659L370.475 292.916L344.907 332.226C343.953 333.694 342.648 334.9 341.11 335.735C339.572 336.569 337.85 337.005 336.101 337.003V337.003Z" fill="#367CFF"/>
<path d="M402.35 309.977C419.222 293.09 438.081 303.901 438.081 303.901V252.259C413.988 246.184 402.35 258.84 402.35 258.84C402.35 258.84 388.336 245.845 365.911 255.296V307.389C365.911 307.389 376.292 301.088 386.649 303.785C397.007 306.482 402.35 309.977 402.35 309.977Z" fill="#9EBCEA"/>
<path d="M447.902 285.588L440.752 295.298C440.752 295.298 423.619 293.166 421.816 278.346C421.609 276.644 422.34 271.092 425.988 272.553C431.18 274.632 434.65 277.737 438.96 282.052C437.866 280.088 436.528 277.316 437.391 276.809C439.655 275.476 445.756 283.521 447.902 285.588Z" fill="#E98862"/>
<path d="M371.252 293.22L359.791 284.07C361.86 280.556 364.731 275.861 366.552 276.502C367.492 276.842 366.712 279.816 366.012 281.958C369.412 276.892 372.482 272.378 377.283 270.015C380.803 268.273 382.354 273.188 382.484 274.9C383.184 284.711 376.132 290.457 371.252 293.22Z" fill="#E98862"/>
<path d="M374.193 295.572L344.318 333.052L327.897 319.938L357.771 282.458L359.791 284.07L371.252 293.22L374.193 295.572Z" fill="#367CFF"/>
<path d="M450.115 281.332L436.043 298.006L471.004 327.567L485.076 310.893L450.115 281.332Z" fill="#367CFF"/>
<path d="M192.145 400.44H202.288V300.565H192.145V400.44Z" fill="#C1D8ED"/>
<path d="M200.493 400.44H210.636V300.565H200.493V400.44Z" fill="#DEE8F5"/>
<path d="M65.8081 400.44H75.9514L75.9514 300.565H65.8081L65.8081 400.44Z" fill="#C1D8ED"/>
<path d="M74.1551 400.44H84.2984L84.2984 300.565H74.1551L74.1551 400.44Z" fill="#DEE8F5"/>
<path d="M164.325 400.44H174.469V300.565H164.325V400.44Z" fill="#C1D8ED"/>
<path d="M172.673 400.44H182.817V300.565H172.673V400.44Z" fill="#DEE8F5"/>
<path d="M37.9876 400.44H48.1309L48.1309 300.565H37.9876L37.9876 400.44Z" fill="#C1D8ED"/>
<path d="M46.3356 400.44H56.4789L56.4789 300.565H46.3356L46.3356 400.44Z" fill="#DEE8F5"/>
<path d="M174.406 236.633H37.9886V302.958H174.406V236.633Z" fill="#C1D8ED"/>
<path d="M210.635 236.633H74.2181V302.958H210.635V236.633Z" fill="#DEE8F5"/>
<g opacity="0.53">
<path d="M203.297 246.062H81.558V293.237H203.297V246.062Z" fill="#F3F5FD"/>
</g>
<path d="M142.428 275.061C145.414 275.061 147.834 272.638 147.834 269.65C147.834 266.661 145.414 264.238 142.428 264.238C139.442 264.238 137.021 266.661 137.021 269.65C137.021 272.638 139.442 275.061 142.428 275.061Z" fill="white"/>
<path d="M292.536 373.999V369.681H268.497V400.435H292.536V395.223C295.348 395.223 298.045 394.105 300.033 392.115C302.021 390.125 303.138 387.426 303.138 384.611C303.138 381.797 302.021 379.098 300.033 377.108C298.045 375.118 295.348 374 292.536 374V373.999ZM292.536 390.84V378.386C293.36 378.375 294.178 378.529 294.942 378.837C295.706 379.145 296.402 379.602 296.988 380.182C297.575 380.761 298.04 381.452 298.358 382.213C298.675 382.973 298.839 383.79 298.839 384.615C298.839 385.439 298.675 386.256 298.358 387.017C298.04 387.778 297.575 388.468 296.988 389.048C296.402 389.627 295.706 390.084 294.942 390.393C294.178 390.701 293.36 390.854 292.536 390.844V390.84Z" fill="#0CBC8B"/>
<path d="M210.636 101.03H262.713V37.7152L210.636 37.7152V101.03Z" fill="#C1D8ED"/>
<path d="M212.675 101.03H264.752V37.7152L212.675 37.7152V101.03Z" fill="#DEE8F5"/>
<path d="M217.037 96.6651H260.391V42.0809L217.037 42.0809V96.6651Z" fill="white"/>
<path d="M228.929 78.0062H252.113V50.8562H228.929V78.0062Z" fill="#C1D8ED"/>
<path d="M230.164 87.8898H230.165C234.794 87.8898 238.547 84.1334 238.547 79.4998V79.4988C238.547 74.8652 234.794 71.1089 230.165 71.1089H230.164C225.534 71.1089 221.782 74.8652 221.782 79.4988V79.4998C221.782 84.1334 225.534 87.8898 230.164 87.8898Z" fill="#DEE8F5"/>
<path d="M221.783 66.4028H240.52V62.6999H221.783V66.4028Z" fill="#F3F5FD"/>
<path d="M557.623 400.439H622.027V385.842H557.623V400.439Z" fill="#C1D8ED"/>
<path d="M556.515 371.279H620.919V356.681H556.515V371.279Z" fill="#C1D8ED"/>
<path d="M579.599 400.439H647.707V385.842H579.599V400.439Z" fill="#DEE8F5"/>
<g opacity="0.62">
<path d="M585.16 400.439H588.465V385.842H585.16V400.439Z" fill="#C1D8ED"/>
</g>
<g opacity="0.62">
<path d="M591.771 400.439H595.076V385.842H591.771V400.439Z" fill="#C1D8ED"/>
</g>
<path d="M639.899 397.848C642.496 397.848 644.601 395.741 644.601 393.141C644.601 390.542 642.496 388.434 639.899 388.434C637.302 388.434 635.196 390.542 635.196 393.141C635.196 395.741 637.302 397.848 639.899 397.848Z" fill="#F3F5FD"/>
<path d="M578.493 371.279H646.601V356.681H578.493V371.279Z" fill="#DEE8F5"/>
<path d="M594.687 367.992H642.214V359.97H594.687V367.992Z" fill="#F3F5FD"/>
<g opacity="0.62">
<path d="M584.053 371.279H590.309V356.681H584.053V371.279Z" fill="#C1D8ED"/>
</g>
<path d="M616.774 371.262H552.37V385.86H616.774V371.262Z" fill="#C1D8ED"/>
<path d="M642.454 371.262H574.347V385.86H642.454V371.262Z" fill="#F3F5FD"/>
<path d="M636.894 371.262H633.589V385.86H636.894V371.262Z" fill="#DEE8F5"/>
<path d="M630.283 371.262H626.977V385.86H630.283V371.262Z" fill="#DEE8F5"/>
<path d="M582.156 383.268C584.753 383.268 586.858 381.16 586.858 378.561C586.858 375.961 584.753 373.854 582.156 373.854C579.558 373.854 577.453 375.961 577.453 378.561C577.453 381.16 579.558 383.268 582.156 383.268Z" fill="#DEE8F5"/>
<path d="M591.818 382.139H621.883V374.983H591.818V382.139Z" fill="#DEE8F5"/>
<path d="M553.316 356.828H617.72V342.23H553.316V356.828Z" fill="#C1D8ED"/>
<path d="M552.209 327.668H616.613V313.07H552.209V327.668Z" fill="#C1D8ED"/>
<path d="M575.294 356.828H643.401V342.23H575.294V356.828Z" fill="#DEE8F5"/>
<g opacity="0.62">
<path d="M580.853 356.828H584.159V342.23H580.853V356.828Z" fill="#C1D8ED"/>
</g>
<g opacity="0.62">
<path d="M587.465 356.828H590.771V342.23H587.465V356.828Z" fill="#C1D8ED"/>
</g>
<path d="M635.592 354.237C638.189 354.237 640.295 352.129 640.295 349.53C640.295 346.93 638.189 344.823 635.592 344.823C632.995 344.823 630.89 346.93 630.89 349.53C630.89 352.129 632.995 354.237 635.592 354.237Z" fill="#F3F5FD"/>
<path d="M574.187 327.668H642.294V313.07H574.187V327.668Z" fill="#DEE8F5"/>
<path d="M590.382 324.38H637.909V316.358H590.382V324.38Z" fill="#F3F5FD"/>
<g opacity="0.62">
<path d="M579.746 327.668H586.002V313.07H579.746V327.668Z" fill="#C1D8ED"/>
</g>
<path d="M612.467 327.65H548.063V342.248H612.467V327.65Z" fill="#C1D8ED"/>
<path d="M638.148 327.65H570.04V342.248H638.148V327.65Z" fill="#F3F5FD"/>
<path d="M632.588 327.65H629.283V342.248H632.588V327.65Z" fill="#DEE8F5"/>
<path d="M625.976 327.65H622.671V342.248H625.976V327.65Z" fill="#DEE8F5"/>
<path d="M577.849 339.656C580.446 339.656 582.552 337.549 582.552 334.949C582.552 332.35 580.446 330.242 577.849 330.242C575.252 330.242 573.147 332.35 573.147 334.949C573.147 337.549 575.252 339.656 577.849 339.656Z" fill="#DEE8F5"/>
<path d="M587.511 338.527H617.576V331.371H587.511V338.527Z" fill="#DEE8F5"/>
</g>
<defs>
<clipPath id="clip0_2_2">
<rect width="690" height="400" fill="white"/>
</clipPath>
</defs>
</svg>
