<svg width="632" height="411" viewBox="0 0 632 411" fill="none" xmlns="http://www.w3.org/2000/svg">
<g clip-path="url(#clip0_32_271)">
<path d="M544.025 271.555L542.837 271.685L557.504 405.806L558.691 405.676L544.025 271.555Z" fill="#292A2E"/>
<path d="M582.013 330.105L574.797 401.535L575.986 401.656L583.202 330.226L582.013 330.105Z" fill="#292A2E"/>
<path d="M594.419 392.901H540.88V410.288H594.419V392.901Z" fill="#292A2E"/>
<path opacity="0.2" d="M594.419 392.901H540.88V410.288H594.419V392.901Z" fill="white"/>
<path d="M626.695 360.887C636.837 347.398 632.002 326.633 615.895 314.506C599.788 302.379 578.509 303.483 568.367 316.971C558.225 330.46 563.06 351.226 579.167 363.353C595.273 375.48 616.552 374.376 626.695 360.887Z" fill="#0CBC8B"/>
<path opacity="0.2" d="M626.695 360.887C636.837 347.398 632.002 326.633 615.895 314.506C599.788 302.379 578.509 303.483 568.367 316.971C558.225 330.46 563.06 351.226 579.167 363.353C595.273 375.48 616.552 374.376 626.695 360.887Z" fill="white"/>
<path opacity="0.5" d="M626.694 360.89C626.012 361.799 625.269 362.661 624.469 363.468C613.305 370.606 596.825 369.482 583.752 359.637C567.647 347.513 562.813 326.747 572.957 313.258C573.639 312.351 574.38 311.489 575.175 310.679C586.347 303.536 602.819 304.666 615.898 314.505C632.003 326.635 636.836 347.401 626.694 360.89Z" fill="white"/>
<path d="M551.979 309.713C567.935 297.388 572.272 276.25 561.666 262.501C551.059 248.751 529.526 247.596 513.57 259.921C497.614 272.246 493.278 293.384 503.884 307.133C514.49 320.883 536.023 322.038 551.979 309.713Z" fill="#0CBC8B"/>
<path opacity="0.2" d="M546.923 306.175C534.566 315.725 518.862 317.181 507.478 310.963C506.16 309.802 504.957 308.518 503.885 307.127C493.276 293.381 497.612 272.241 513.568 259.919C525.925 250.373 541.629 248.913 553.007 255.124C554.327 256.286 555.532 257.573 556.606 258.967C567.214 272.712 562.877 293.852 546.923 306.175Z" fill="white"/>
<path d="M442.837 195.866L626.354 196.138V128.159H442.837V195.866Z" fill="#EFEFEF"/>
<path d="M610.553 147.013H458.637C458.562 147.016 458.487 147.003 458.417 146.976C458.347 146.949 458.283 146.908 458.229 146.856C458.175 146.803 458.132 146.741 458.103 146.671C458.073 146.602 458.058 146.527 458.058 146.452C458.058 146.377 458.073 146.302 458.103 146.233C458.132 146.164 458.175 146.101 458.229 146.049C458.283 145.997 458.347 145.956 458.417 145.928C458.487 145.901 458.562 145.889 458.637 145.891H610.553C610.628 145.889 610.703 145.901 610.773 145.928C610.843 145.956 610.907 145.997 610.961 146.049C611.015 146.101 611.058 146.164 611.088 146.233C611.117 146.302 611.132 146.377 611.132 146.452C611.132 146.527 611.117 146.602 611.088 146.671C611.058 146.741 611.015 146.803 610.961 146.856C610.907 146.908 610.843 146.949 610.773 146.976C610.703 147.003 610.628 147.016 610.553 147.013Z" fill="white"/>
<path d="M610.553 163.85H458.637C458.562 163.853 458.487 163.84 458.417 163.813C458.347 163.786 458.283 163.745 458.229 163.692C458.175 163.64 458.132 163.577 458.103 163.508C458.073 163.439 458.058 163.364 458.058 163.289C458.058 163.214 458.073 163.139 458.103 163.07C458.132 163.001 458.175 162.938 458.229 162.886C458.283 162.833 458.347 162.792 458.417 162.765C458.487 162.738 458.562 162.726 458.637 162.728H610.553C610.628 162.726 610.703 162.738 610.773 162.765C610.843 162.792 610.907 162.833 610.961 162.886C611.015 162.938 611.058 163.001 611.088 163.07C611.117 163.139 611.132 163.214 611.132 163.289C611.132 163.364 611.117 163.439 611.088 163.508C611.058 163.577 611.015 163.64 610.961 163.692C610.907 163.745 610.843 163.786 610.773 163.813C610.703 163.84 610.628 163.853 610.553 163.85Z" fill="white"/>
<path d="M610.553 180.687H520.33C520.181 180.687 520.038 180.628 519.933 180.523C519.828 180.417 519.769 180.274 519.769 180.126C519.769 179.977 519.828 179.834 519.933 179.729C520.038 179.623 520.181 179.564 520.33 179.564H610.553C610.702 179.564 610.844 179.623 610.95 179.729C611.055 179.834 611.114 179.977 611.114 180.126C611.114 180.274 611.055 180.417 610.95 180.523C610.844 180.628 610.702 180.687 610.553 180.687Z" fill="white"/>
<path d="M223.874 88.7437L1.78989 88.7981L1.80661 0H223.874V88.7437Z" fill="#EFEFEF"/>
<path d="M207.288 19.6484H18.3924C18.2741 19.6484 18.1606 19.6014 18.0769 19.5176C17.9932 19.4339 17.9462 19.3203 17.9462 19.2018C17.9462 19.0834 17.9932 18.9698 18.0769 18.8861C18.1606 18.8023 18.2741 18.7552 18.3924 18.7552H207.288C207.407 18.7552 207.52 18.8023 207.604 18.8861C207.687 18.9698 207.734 19.0834 207.734 19.2018C207.734 19.3203 207.687 19.4339 207.604 19.5176C207.52 19.6014 207.407 19.6484 207.288 19.6484Z" fill="white"/>
<path d="M207.288 37.3216H18.3924C18.2741 37.3216 18.1606 37.2746 18.0769 37.1908C17.9932 37.1071 17.9462 36.9935 17.9462 36.875C17.9462 36.7566 17.9932 36.643 18.0769 36.5593C18.1606 36.4755 18.2741 36.4285 18.3924 36.4285H207.288C207.407 36.4285 207.52 36.4755 207.604 36.5593C207.687 36.643 207.734 36.7566 207.734 36.875C207.734 36.9935 207.687 37.1071 207.604 37.1908C207.52 37.2746 207.407 37.3216 207.288 37.3216Z" fill="white"/>
<path d="M207.288 54.9941H18.3924C18.2741 54.9941 18.1606 54.9471 18.0769 54.8633C17.9932 54.7796 17.9462 54.666 17.9462 54.5475C17.9462 54.4291 17.9932 54.3155 18.0769 54.2318C18.1606 54.148 18.2741 54.101 18.3924 54.101H207.288C207.407 54.101 207.52 54.148 207.604 54.2318C207.687 54.3155 207.734 54.4291 207.734 54.5475C207.734 54.666 207.687 54.7796 207.604 54.8633C207.52 54.9471 207.407 54.9941 207.288 54.9941Z" fill="white"/>
<path d="M113.096 72.6673H18.3924C18.2741 72.6673 18.1606 72.6203 18.0769 72.5365C17.9932 72.4528 17.9462 72.3392 17.9462 72.2208C17.9462 72.1023 17.9932 71.9887 18.0769 71.905C18.1606 71.8212 18.2741 71.7742 18.3924 71.7742H113.096C113.215 71.7742 113.328 71.8212 113.412 71.905C113.496 71.9887 113.543 72.1023 113.543 72.2208C113.543 72.3392 113.496 72.4528 113.412 72.5365C113.328 72.6203 113.215 72.6673 113.096 72.6673Z" fill="white"/>
<path d="M525.44 41.7294H122.362C112.463 41.7294 104.439 49.7592 104.439 59.6644V354.979C104.439 364.885 112.463 372.914 122.362 372.914H525.44C535.339 372.914 543.363 364.885 543.363 354.979V59.6644C543.363 49.7592 535.339 41.7294 525.44 41.7294Z" fill="white"/>
<path d="M525.439 373.512H122.362C117.452 373.506 112.744 371.552 109.272 368.077C105.8 364.603 103.847 359.892 103.842 354.979V59.6638C103.847 54.7504 105.8 50.0398 109.272 46.5654C112.744 43.0911 117.452 41.1367 122.362 41.131H525.439C530.349 41.1365 535.057 43.0909 538.529 46.5652C542.001 50.0396 543.954 54.7503 543.959 59.6638V354.979C543.954 359.892 542.001 364.603 538.529 368.078C535.057 371.552 530.349 373.506 525.439 373.512ZM122.362 42.3266C117.768 42.3317 113.365 44.1599 110.117 47.4102C106.868 50.6604 105.041 55.0673 105.036 59.6638V354.979C105.041 359.575 106.868 363.982 110.117 367.232C113.365 370.483 117.768 372.311 122.362 372.316H525.439C530.032 372.311 534.436 370.483 537.684 367.232C540.932 363.982 542.759 359.575 542.764 354.979V59.6638C542.759 55.0673 540.932 50.6604 537.684 47.4102C534.436 44.1599 530.032 42.3317 525.439 42.3266H122.362Z" fill="#292A2E"/>
<path d="M543.362 59.6638V77.7112H104.441V59.6638C104.441 54.9071 106.329 50.3453 109.69 46.9818C113.051 43.6183 117.61 41.7288 122.364 41.7288H525.439C530.192 41.7288 534.751 43.6183 538.112 46.9818C541.474 50.3453 543.362 54.9071 543.362 59.6638Z" fill="#292A2E"/>
<path opacity="0.2" d="M293.585 223.519H228.671C220.481 223.519 213.841 230.163 213.841 238.359C213.841 246.555 220.481 253.199 228.671 253.199H293.585C301.775 253.199 308.415 246.555 308.415 238.359C308.415 230.163 301.775 223.519 293.585 223.519Z" fill="#367CFF"/>
<path opacity="0.2" d="M418.266 223.519H353.352C345.161 223.519 338.522 230.163 338.522 238.359C338.522 246.555 345.161 253.199 353.352 253.199H418.266C426.456 253.199 433.095 246.555 433.095 238.359C433.095 230.163 426.456 223.519 418.266 223.519Z" fill="#367CFF"/>
<path opacity="0.1" d="M500.009 157.21C500.009 160.952 499.273 164.658 497.843 168.115C496.412 171.573 494.315 174.715 491.671 177.361C489.027 180.007 485.888 182.107 482.433 183.539C478.978 184.971 475.275 185.709 471.535 185.709H187.541C183.802 185.709 180.099 184.972 176.644 183.54C173.189 182.108 170.05 180.009 167.406 177.363C164.761 174.716 162.664 171.575 161.233 168.118C159.802 164.661 159.065 160.955 159.065 157.213C159.065 153.471 159.802 149.765 161.233 146.308C162.664 142.851 164.761 139.71 167.406 137.063C170.05 134.417 173.189 132.318 176.644 130.886C180.099 129.454 183.802 128.717 187.541 128.717H471.535C479.087 128.718 486.329 131.72 491.669 137.063C497.008 142.406 500.009 149.653 500.009 157.21Z" fill="#367CFF"/>
<path d="M500.009 157.21C500.009 160.952 499.273 164.658 497.843 168.115C496.412 171.573 494.315 174.715 491.671 177.361C489.027 180.007 485.888 182.107 482.433 183.539C478.978 184.971 475.275 185.709 471.535 185.709H427.421V128.717H471.535C479.087 128.718 486.329 131.72 491.669 137.063C497.008 142.406 500.008 149.653 500.009 157.21Z" fill="#367CFF"/>
<path d="M198.747 166.162L195.856 156.908C195.674 156.342 195.333 155.056 194.835 153.051H194.719C194.336 154.73 194 156.025 193.713 156.937L190.736 166.162H187.975L183.673 150.389H186.175C187.191 154.351 187.965 157.369 188.498 159.441C188.884 160.817 189.189 162.214 189.411 163.626H189.526C189.632 163.079 189.802 162.372 190.037 161.503C190.271 160.635 190.475 159.946 190.648 159.438L193.539 150.386H196.128L198.947 159.438C199.408 160.797 199.773 162.187 200.04 163.597H200.155C200.23 163.06 200.333 162.526 200.464 162C200.632 161.28 201.631 157.409 203.463 150.386H205.937L201.576 166.159L198.747 166.162Z" fill="#0A0A0A"/>
<path d="M222.836 166.162L219.945 156.908C219.762 156.342 219.422 155.056 218.924 153.051H218.809C218.425 154.73 218.09 156.025 217.802 156.937L214.825 166.162H212.063L207.762 150.389H210.265C211.281 154.351 212.055 157.369 212.587 159.441C212.973 160.817 213.278 162.214 213.5 163.626H213.616C213.722 163.079 213.892 162.372 214.126 161.503C214.361 160.635 214.565 159.946 214.738 159.438L217.628 150.386H220.217L223.036 159.438C223.498 160.797 223.863 162.187 224.129 163.597H224.244C224.318 163.06 224.422 162.526 224.553 162C224.721 161.28 225.72 157.409 227.552 150.386H230.026L225.668 166.159L222.836 166.162Z" fill="#0A0A0A"/>
<path d="M246.925 166.162L244.034 156.908C243.852 156.342 243.512 155.056 243.013 153.051H242.898C242.514 154.73 242.179 156.025 241.891 156.937L238.912 166.162H236.15L231.849 150.389H234.351C235.368 154.351 236.142 157.369 236.674 159.441C237.06 160.817 237.365 162.214 237.587 163.626H237.702C237.808 163.079 237.978 162.372 238.213 161.503C238.448 160.635 238.651 159.946 238.824 159.438L241.715 150.386H244.304L247.127 159.442C247.588 160.801 247.953 162.191 248.219 163.601H248.335C248.409 163.064 248.512 162.531 248.644 162.004C248.811 161.284 249.811 157.413 251.643 150.39H254.116L249.755 166.163L246.925 166.162Z" fill="#0A0A0A"/>
<path d="M456.85 165.137C453.503 165.14 450.266 163.941 447.727 161.758C445.189 159.576 443.517 156.554 443.016 153.242C442.515 149.931 443.218 146.549 444.997 143.712C446.776 140.875 449.513 138.771 452.711 137.782C455.909 136.793 459.355 136.986 462.423 138.324C465.492 139.662 467.978 142.057 469.432 145.074C470.885 148.091 471.208 151.53 470.343 154.766C469.477 158.001 467.48 160.818 464.715 162.705C462.397 164.287 459.656 165.135 456.85 165.137ZM456.806 140.132C453.971 140.134 451.245 141.228 449.194 143.188C447.143 145.148 445.926 147.823 445.794 150.657C445.662 153.492 446.626 156.268 448.486 158.41C450.346 160.552 452.959 161.895 455.782 162.16C458.606 162.425 461.422 161.592 463.648 159.833C465.873 158.075 467.337 155.526 467.734 152.717C468.131 149.907 467.432 147.052 465.781 144.745C464.131 142.438 461.656 140.855 458.87 140.326C458.19 140.197 457.499 140.133 456.806 140.132Z" fill="white"/>
<path d="M477.462 177.279C477.243 177.279 477.028 177.231 476.83 177.139C476.632 177.047 476.457 176.912 476.317 176.744L463.861 161.872C463.606 161.568 463.483 161.176 463.518 160.781C463.552 160.386 463.742 160.021 464.046 159.766C464.35 159.512 464.742 159.388 465.136 159.423C465.531 159.458 465.896 159.648 466.15 159.952L478.606 174.824C478.788 175.042 478.905 175.308 478.942 175.59C478.979 175.871 478.935 176.158 478.815 176.416C478.695 176.674 478.504 176.892 478.264 177.045C478.024 177.197 477.746 177.279 477.462 177.279Z" fill="white"/>
<path d="M22.4006 378.668C18.791 378.668 15.2349 377.794 12.035 376.123C8.83519 374.451 6.08634 372.031 4.02249 369.067C1.95864 366.104 0.640895 362.685 0.181441 359.103C-0.278014 355.52 0.134423 351.879 1.38364 348.49C2.65079 345.05 32.4936 264.063 38.1518 249.469L79.9253 265.687C76.744 273.892 65.2172 304.992 55.957 330.044L71.3414 328.37L76.1836 372.945L24.825 378.532C24.0199 378.621 23.2106 378.666 22.4006 378.668Z" fill="#367CFF"/>
<path d="M49.2491 376.375L42.4175 410.402H175.106L167.463 375.728L49.2491 376.375Z" fill="#262626"/>
<path d="M77.9382 224.307C66.8523 225.13 55.5483 228.735 47.2244 236.108C34.6694 247.228 35.7866 254.18 42.0542 284.977C47.4466 311.476 45.3078 323.056 48.9151 371.954C49.0214 373.394 49.2491 376.374 49.2491 376.374L167.839 376.177C167.839 376.177 178.951 311.302 185.086 281.379C189.751 258.631 202.006 231.016 150.337 225.45C150.201 225.437 108.761 222.02 77.9382 224.307Z" fill="#367CFF"/>
<path d="M320.824 199.778C315.237 199.776 309.793 198.016 305.261 194.748C300.729 191.48 297.338 186.869 295.569 181.567C293.799 176.265 293.74 170.54 295.401 165.203C297.061 159.865 300.356 155.185 304.821 151.825C309.285 148.464 314.692 146.593 320.277 146.477C325.862 146.36 331.342 148.004 335.942 151.175C340.543 154.346 344.03 158.885 345.912 164.148C347.793 169.412 347.973 175.134 346.426 180.505C344.818 186.058 341.454 190.939 336.837 194.414C332.22 197.889 326.601 199.772 320.824 199.778ZM320.805 152.442C315.562 152.438 310.512 154.425 306.674 158C302.836 161.575 300.496 166.473 300.124 171.707C299.752 176.941 301.377 182.121 304.672 186.203C307.966 190.285 312.684 192.966 317.875 193.704C323.066 194.443 328.344 193.185 332.645 190.184C336.946 187.182 339.95 182.661 341.051 177.531C342.152 172.401 341.269 167.044 338.579 162.54C335.889 158.036 331.593 154.72 326.557 153.26C324.687 152.719 322.751 152.443 320.805 152.442Z" fill="#0A0A0A"/>
<path d="M298.332 232.626C297.844 232.625 297.363 232.506 296.932 232.277C296.502 232.048 296.133 231.717 295.86 231.313C295.586 230.909 295.415 230.444 295.363 229.959C295.31 229.473 295.377 228.983 295.558 228.529L309.144 194.419C309.446 193.694 310.02 193.118 310.743 192.813C311.465 192.509 312.279 192.501 313.007 192.791C313.736 193.081 314.321 193.647 314.637 194.365C314.952 195.083 314.973 195.897 314.694 196.631L301.107 230.742C300.886 231.298 300.503 231.774 300.009 232.11C299.514 232.446 298.93 232.626 298.332 232.626Z" fill="#0A0A0A"/>
<path d="M287.93 228.884L296.262 210.182C296.445 209.771 296.711 209.402 297.044 209.1C297.378 208.798 297.77 208.569 298.197 208.427C298.623 208.285 299.075 208.233 299.522 208.275C299.97 208.317 300.404 208.452 300.797 208.671C301.51 209.099 302.038 209.776 302.281 210.571C302.523 211.366 302.461 212.223 302.107 212.976L300.321 216.986L311.724 206.956C312.972 205.82 315.231 205.222 316.413 206.707C316.906 207.249 317.2 207.942 317.248 208.672C317.297 209.403 317.096 210.128 316.679 210.73C316.693 210.739 316.706 210.75 316.717 210.761C316.724 210.772 316.731 210.783 316.736 210.794L318.661 209.04C319.018 208.716 319.442 208.475 319.904 208.335C320.365 208.196 320.852 208.161 321.329 208.233C321.805 208.306 322.26 208.484 322.659 208.754C323.058 209.025 323.392 209.381 323.636 209.797C324.008 210.46 324.14 211.231 324.012 211.98C323.884 212.729 323.502 213.411 322.931 213.913L322.112 214.659C322.123 214.693 322.127 214.728 322.125 214.763C322.796 214.387 323.578 214.262 324.332 214.411C325.086 214.559 325.762 214.971 326.241 215.573C326.744 216.247 326.976 217.086 326.889 217.923C326.802 218.76 326.402 219.533 325.77 220.089L323.736 221.942C323.783 221.936 323.831 221.942 323.876 221.958C323.921 221.974 323.961 222.001 323.993 222.036C324.029 222.08 324.052 222.132 324.059 222.188C324.749 222.02 325.475 222.083 326.126 222.367C326.776 222.652 327.316 223.142 327.661 223.763C328.01 224.423 328.126 225.182 327.991 225.916C327.855 226.65 327.476 227.318 326.914 227.809L309.747 243.449C307.346 245.637 304.346 247.058 301.132 247.528C297.918 247.999 294.637 247.499 291.71 246.092C289.185 244.878 287.233 242.728 286.268 240.097C285.303 237.466 285.401 234.562 286.541 232.003L287.93 228.884Z" fill="#E98862"/>
<g opacity="0.2">
<path d="M305.442 220.712C305.495 220.77 305.568 220.805 305.646 220.809C305.725 220.813 305.801 220.786 305.86 220.734L316.692 211.181C316.721 211.155 316.745 211.124 316.763 211.088C316.78 211.053 316.79 211.015 316.792 210.976C316.795 210.936 316.789 210.897 316.777 210.86C316.764 210.823 316.744 210.789 316.718 210.759C316.692 210.73 316.661 210.706 316.625 210.688C316.59 210.671 316.552 210.661 316.513 210.659C316.474 210.656 316.434 210.661 316.397 210.674C316.36 210.687 316.326 210.707 316.296 210.733L305.466 220.286C305.436 220.312 305.412 220.343 305.395 220.378C305.378 220.414 305.367 220.452 305.365 220.491C305.363 220.53 305.368 220.57 305.381 220.607C305.393 220.644 305.413 220.678 305.439 220.708L305.442 220.712Z" fill="#0C0C0C"/>
</g>
<g opacity="0.2">
<path d="M309.52 225.609C309.573 225.667 309.647 225.702 309.725 225.706C309.803 225.71 309.88 225.683 309.938 225.631L322.027 214.97C322.056 214.944 322.08 214.912 322.098 214.877C322.115 214.842 322.125 214.803 322.127 214.764C322.13 214.725 322.125 214.686 322.112 214.648C322.099 214.611 322.079 214.577 322.053 214.548C321.999 214.491 321.926 214.456 321.847 214.451C321.769 214.446 321.692 214.471 321.631 214.521L309.543 225.182C309.514 225.208 309.49 225.239 309.472 225.275C309.455 225.31 309.445 225.348 309.442 225.387C309.44 225.427 309.445 225.466 309.458 225.503C309.471 225.54 309.491 225.574 309.517 225.604L309.52 225.609Z" fill="#0C0C0C"/>
</g>
<g opacity="0.2">
<path d="M313.907 230.938C313.96 230.995 314.034 231.03 314.112 231.034C314.19 231.038 314.267 231.011 314.325 230.959L323.968 222.456C323.997 222.43 324.021 222.398 324.039 222.363C324.056 222.328 324.066 222.289 324.068 222.25C324.071 222.211 324.066 222.172 324.053 222.134C324.04 222.097 324.02 222.063 323.994 222.034C323.968 222.004 323.937 221.98 323.902 221.963C323.866 221.946 323.828 221.936 323.789 221.933C323.75 221.931 323.71 221.936 323.673 221.949C323.636 221.961 323.602 221.981 323.572 222.007L313.93 230.511C313.901 230.537 313.876 230.568 313.859 230.604C313.842 230.639 313.832 230.677 313.829 230.716C313.827 230.756 313.832 230.795 313.845 230.832C313.858 230.869 313.878 230.904 313.904 230.933L313.907 230.938Z" fill="#0C0C0C"/>
</g>
<path d="M282.722 222.813L232.205 279.739L181.16 235.546L151.843 269.455L219.61 328.124L220.067 328.519C220.226 328.655 220.386 328.788 220.548 328.92C225.064 332.577 230.848 334.289 236.625 333.679C242.403 333.069 247.702 330.187 251.357 325.668L313.446 248.878L282.722 222.813Z" fill="#367CFF"/>
<path d="M150.337 225.453C150.2 225.435 146.436 239.61 117.06 237.404C96.7238 235.879 91.7651 222.028 91.2991 222.028C93.4917 221.561 97.0524 221.077 98.0262 220.557C101.228 218.835 103.561 216.739 104.735 212.241C105.654 208.723 106.121 195.182 106.121 188.388L137.415 195.424C136.979 203.088 133.926 220.856 144.626 224.001C146.406 224.521 148.324 224.999 150.337 225.453Z" fill="#E98862"/>
<path d="M136.333 210.492C123.997 211.466 108.15 206.254 105.139 189.784L102.423 174.923C99.4128 158.452 105.618 143.518 121.115 140.682C136.612 137.846 150.636 149.078 153.646 165.549L154.848 172.125C156.001 178.447 158.343 208.755 136.333 210.492Z" fill="#E98862"/>
<path d="M147.771 195.372C145.556 184.238 144.541 176.81 144.659 168.973C147.778 163.498 146.957 157.215 146.248 154.499C149.305 156.169 150.584 156.353 153.461 156.353C153.461 156.353 148.303 135.637 130.771 130.063C127.545 128.807 119.316 127.221 108.386 128.721C99.0902 129.997 76.1752 136.953 72.8989 162.768V162.783C72.7902 163.639 70.5904 187.424 66.2041 198.837C60.3069 214.178 52.0289 218.944 52.2386 236.644C52.5087 259.412 94.3371 262.443 119.569 260.74C144.801 259.037 158.88 250.735 159.064 234.327C159.267 215.938 152.201 217.646 147.771 195.372Z" fill="#0A0A0A"/>
<path d="M147.778 186.038C143.068 186.899 138.329 182.556 137.468 177.844C136.607 173.131 139.949 169.833 144.659 168.971L147.778 186.038Z" fill="#E98862"/>
<path d="M182.252 296.079C182.234 296.079 182.215 296.077 182.197 296.074C182.158 296.066 182.121 296.052 182.088 296.03C182.055 296.009 182.027 295.981 182.005 295.949C181.983 295.916 181.967 295.88 181.959 295.841C181.951 295.803 181.951 295.763 181.958 295.724L184.964 279.786C184.97 279.746 184.984 279.708 185.005 279.674C185.026 279.64 185.054 279.61 185.086 279.587C185.119 279.563 185.156 279.547 185.195 279.538C185.235 279.53 185.275 279.529 185.315 279.537C185.354 279.544 185.392 279.559 185.425 279.582C185.459 279.604 185.487 279.633 185.509 279.666C185.531 279.7 185.546 279.738 185.553 279.777C185.561 279.817 185.56 279.858 185.551 279.897L182.545 295.836C182.532 295.904 182.496 295.966 182.442 296.01C182.389 296.054 182.322 296.079 182.252 296.079Z" fill="#0C0C0C"/>
<path d="M49.2491 376.674C49.1719 376.674 49.0977 376.644 49.042 376.591C48.9863 376.537 48.9534 376.464 48.9504 376.387L45.2343 279.852C45.2327 279.813 45.2389 279.774 45.2525 279.737C45.266 279.7 45.2867 279.666 45.3133 279.637C45.34 279.608 45.372 279.585 45.4077 279.568C45.4433 279.552 45.4819 279.543 45.5211 279.541C45.5993 279.542 45.6745 279.572 45.7318 279.625C45.7892 279.678 45.8246 279.751 45.8312 279.829L49.5478 376.364C49.5493 376.403 49.5431 376.442 49.5295 376.479C49.5158 376.516 49.4951 376.55 49.4684 376.579C49.4417 376.607 49.4096 376.631 49.3739 376.647C49.3382 376.664 49.2997 376.673 49.2604 376.674H49.2491Z" fill="#0C0C0C"/>
<path d="M228.815 284.642C228.76 284.642 228.706 284.627 228.658 284.598C228.611 284.569 228.573 284.527 228.548 284.477C228.523 284.428 228.513 284.372 228.518 284.317C228.523 284.261 228.543 284.209 228.576 284.164L231.968 279.561C232.016 279.499 232.086 279.458 232.163 279.446C232.241 279.435 232.319 279.455 232.382 279.502C232.445 279.548 232.488 279.618 232.5 279.695C232.513 279.772 232.494 279.851 232.449 279.915L229.054 284.521C229.027 284.558 228.991 284.589 228.949 284.61C228.908 284.631 228.862 284.642 228.815 284.642Z" fill="#0C0C0C"/>
<path d="M13.6005 411H610.815C610.974 411 611.126 410.937 611.238 410.825C611.35 410.713 611.413 410.561 611.413 410.402C611.413 410.244 611.35 410.092 611.238 409.979C611.126 409.867 610.974 409.804 610.815 409.804H13.6005C13.442 409.804 13.2901 409.867 13.178 409.979C13.066 410.092 13.0031 410.244 13.0031 410.402C13.0031 410.561 13.066 410.713 13.178 410.825C13.2901 410.937 13.442 411 13.6005 411Z" fill="#292A2E"/>
</g>
<defs>
<clipPath id="clip0_32_271">
<rect width="632" height="411" fill="white"/>
</clipPath>
</defs>
</svg>
