<svg width="555" height="415" viewBox="0 0 555 415" fill="none" xmlns="http://www.w3.org/2000/svg">
<g clip-path="url(#clip0_29_8)">
<path d="M514.638 368.205L521.92 414.06H471.84L480.812 368.205H514.638Z" fill="#262626"/>
<path opacity="0.2" d="M514.638 368.205L521.92 414.06H471.84L480.812 368.205H514.638Z" fill="white"/>
<path d="M498.154 368.35C498.128 368.35 498.102 368.348 498.076 368.344C497.952 368.323 497.841 368.254 497.768 368.152C497.695 368.049 497.665 367.922 497.686 367.798L511.478 284.402C511.501 284.28 511.571 284.172 511.673 284.101C511.774 284.03 511.899 284.002 512.021 284.022C512.144 284.042 512.253 284.109 512.326 284.209C512.399 284.309 512.431 284.434 512.413 284.557L498.621 367.953C498.603 368.064 498.546 368.165 498.46 368.237C498.375 368.31 498.266 368.35 498.154 368.35Z" fill="#494949"/>
<path d="M501.405 349.449C501.296 349.449 501.19 349.412 501.106 349.343C501.021 349.274 500.963 349.179 500.941 349.072C500.918 348.965 500.933 348.854 500.983 348.757C501.033 348.66 501.115 348.583 501.214 348.539L534.889 333.786C535.004 333.74 535.131 333.74 535.246 333.787C535.36 333.834 535.451 333.923 535.501 334.036C535.55 334.149 535.553 334.277 535.51 334.393C535.467 334.509 535.38 334.603 535.269 334.656L501.594 349.409C501.534 349.436 501.47 349.45 501.405 349.449Z" fill="#494949"/>
<path d="M503.073 335.169C503.01 335.155 502.95 335.129 502.898 335.091L480.181 318.829C480.128 318.794 480.081 318.749 480.046 318.696C480.01 318.643 479.985 318.583 479.973 318.52C479.961 318.457 479.962 318.392 479.976 318.329C479.989 318.267 480.015 318.207 480.053 318.155C480.09 318.103 480.137 318.059 480.191 318.025C480.246 317.992 480.307 317.97 480.37 317.96C480.433 317.951 480.498 317.955 480.56 317.971C480.622 317.987 480.68 318.016 480.73 318.055L503.447 334.318C503.535 334.382 503.598 334.474 503.627 334.579C503.655 334.684 503.647 334.796 503.603 334.895C503.559 334.995 503.482 335.076 503.385 335.126C503.289 335.176 503.178 335.191 503.071 335.168L503.073 335.169Z" fill="#494949"/>
<path d="M544.682 360.277C554.524 355.386 557.918 342.157 552.263 330.729C546.608 319.301 534.045 314.001 524.204 318.891C514.362 323.782 510.968 337.01 516.623 348.439C522.278 359.867 534.84 365.167 544.682 360.277Z" fill="#0CBC8B"/>
<path opacity="0.5" d="M547.151 356.97C537.31 361.86 524.746 356.56 519.091 345.132C515.256 337.381 515.583 328.805 519.264 322.559C520.678 321.048 522.352 319.804 524.205 318.885C534.046 313.995 546.61 319.295 552.264 330.723C556.102 338.474 555.775 347.054 552.091 353.296C550.677 354.807 549.004 356.051 547.151 356.97Z" fill="white"/>
<path d="M531.598 293.444C535.681 283.305 530.406 271.613 519.815 267.331C509.225 263.048 497.33 267.796 493.247 277.935C489.164 288.074 494.439 299.766 505.029 304.048C515.62 308.331 527.515 303.583 531.598 293.444Z" fill="#0CBC8B"/>
<path opacity="0.5" d="M531.596 293.44C531.442 293.823 531.276 294.196 531.097 294.564C525.867 301.954 515.775 304.966 506.653 301.276C496.062 296.993 490.787 285.302 494.869 275.162C495.024 274.779 495.19 274.406 495.369 274.038C500.599 266.648 510.69 263.635 519.813 267.326C530.403 271.608 535.679 283.3 531.596 293.44Z" fill="white"/>
<path d="M491.639 325.394C496.959 315.56 494.405 303.858 485.936 299.257C477.466 294.657 466.288 298.9 460.968 308.735C455.649 318.569 458.202 330.271 466.671 334.872C475.141 339.472 486.319 335.229 491.639 325.394Z" fill="#0CBC8B"/>
<path opacity="0.5" d="M464.614 331.899C473.083 336.5 484.262 332.256 489.581 322.422C493.189 315.753 493.175 308.226 490.149 302.634C488.957 301.265 487.53 300.121 485.936 299.256C477.468 294.655 466.288 298.899 460.969 308.733C457.359 315.406 457.372 322.934 460.402 328.521C461.593 329.891 463.02 331.035 464.614 331.899Z" fill="white"/>
<path d="M212.312 48.2106C215.101 40.0506 213.057 31.9585 207.747 30.1363C202.437 28.3142 195.872 33.4521 193.083 41.6121C190.295 49.772 192.339 57.8641 197.649 59.6862C202.959 61.5084 209.524 56.3705 212.312 48.2106Z" fill="#F4F4F4"/>
<path d="M193.405 41.5916C197.187 39.8832 198.14 33.8027 195.534 28.0105C192.929 22.2182 187.75 18.9076 183.969 20.616C180.187 22.3244 179.234 28.4048 181.839 34.1971C184.445 39.9893 189.623 43.3 193.405 41.5916Z" fill="#F4F4F4"/>
<path d="M186.252 55.0536H206.481C208.26 55.0536 209.967 55.7619 211.225 57.0226C212.483 58.2833 213.19 59.9932 213.19 61.7762V70.9989C213.19 72.7818 212.483 74.4917 211.225 75.7525C209.967 77.0132 208.26 77.7215 206.481 77.7215H186.252V55.0536Z" fill="#F4F4F4"/>
<g opacity="0.05">
<path d="M186.252 55.0536H206.481C208.26 55.0536 209.967 55.7619 211.225 57.0226C212.483 58.2833 213.19 59.9932 213.19 61.7762V70.9989C213.19 72.7818 212.483 74.4917 211.225 75.7525C209.967 77.0132 208.26 77.7215 206.481 77.7215H186.252V55.0536Z" fill="#292A2E"/>
</g>
<g opacity="0.05">
<path d="M210.606 39.4044H210.58C210.54 39.4001 210.501 39.3859 210.467 39.363C210.433 39.34 210.405 39.3091 210.386 39.2728C210.31 39.0915 210.305 38.8886 210.371 38.7037C210.487 38.2138 210.458 37.7005 210.288 37.2268C210.276 37.1959 210.27 37.163 210.271 37.1298C210.272 37.0967 210.279 37.064 210.293 37.0338C210.306 37.0035 210.326 36.9762 210.35 36.9536C210.374 36.9309 210.402 36.9133 210.433 36.9017C210.464 36.8901 210.497 36.8848 210.53 36.8862C210.563 36.8875 210.596 36.8954 210.626 36.9094C210.656 36.9234 210.683 36.9433 210.705 36.9678C210.727 36.9923 210.744 37.0211 210.755 37.0523C210.919 37.5042 210.975 37.9881 210.92 38.4656C211.209 38.2016 211.533 37.9776 211.882 37.7995C211.911 37.7827 211.944 37.772 211.977 37.7682C212.011 37.7644 212.045 37.7674 212.078 37.7772C212.11 37.787 212.14 37.8034 212.166 37.8252C212.192 37.847 212.213 37.8739 212.228 37.9042C212.244 37.9345 212.253 37.9676 212.255 38.0015C212.257 38.0354 212.252 38.0693 212.24 38.1013C212.229 38.1332 212.211 38.1625 212.188 38.1873C212.165 38.2121 212.137 38.2319 212.106 38.2456C211.602 38.5084 211.156 38.8723 210.798 39.3148C210.775 39.343 210.745 39.3657 210.712 39.3812C210.679 39.3966 210.642 39.4046 210.606 39.4044Z" fill="#292A2E"/>
<path d="M203.04 33.4499C203.008 33.4501 202.975 33.4436 202.945 33.4309C202.773 33.3394 202.641 33.1855 202.577 33.0003C202.365 32.5505 202.024 32.1744 201.598 31.9206C201.541 31.8874 201.499 31.8328 201.482 31.7687C201.464 31.7046 201.473 31.6362 201.506 31.5787C201.539 31.5212 201.594 31.4793 201.658 31.4621C201.722 31.4449 201.79 31.4538 201.847 31.487C202.255 31.7271 202.599 32.0613 202.851 32.4617C202.91 32.0679 203.019 31.6835 203.177 31.3179C203.189 31.2869 203.208 31.2586 203.232 31.2348C203.255 31.211 203.283 31.1922 203.314 31.1795C203.345 31.1668 203.378 31.1605 203.411 31.1609C203.445 31.1613 203.478 31.1684 203.509 31.1818C203.539 31.1952 203.567 31.2146 203.59 31.2389C203.613 31.2632 203.631 31.2919 203.642 31.3232C203.654 31.3546 203.659 31.388 203.658 31.4214C203.657 31.4549 203.648 31.4877 203.634 31.518C203.409 32.0508 203.292 32.6236 203.291 33.2024C203.291 33.2687 203.265 33.3323 203.218 33.3792C203.171 33.4261 203.107 33.4524 203.041 33.4524L203.04 33.4499Z" fill="#292A2E"/>
<path d="M196.662 41.5149C196.629 41.5149 196.597 41.5086 196.567 41.4963C196.395 41.4057 196.264 41.2531 196.2 41.0692C195.988 40.618 195.646 40.2406 195.219 39.9855C195.161 39.9523 195.12 39.8977 195.102 39.8336C195.085 39.7695 195.094 39.7012 195.127 39.6437C195.16 39.5862 195.215 39.5442 195.279 39.527C195.343 39.5098 195.411 39.5187 195.468 39.5519C195.876 39.7922 196.22 40.1266 196.472 40.5271C196.53 40.1332 196.64 39.7485 196.797 39.3828C196.81 39.3518 196.828 39.3235 196.852 39.2997C196.875 39.276 196.903 39.2572 196.934 39.2445C196.965 39.2318 196.998 39.2254 197.032 39.2258C197.065 39.2262 197.098 39.2333 197.129 39.2467C197.159 39.2601 197.187 39.2795 197.21 39.3038C197.233 39.3281 197.251 39.3568 197.263 39.3881C197.274 39.4195 197.28 39.4529 197.278 39.4863C197.277 39.5198 197.269 39.5526 197.255 39.5829C197.029 40.1156 196.913 40.6882 196.912 41.2668C196.912 41.3331 196.886 41.3967 196.839 41.4436C196.792 41.4905 196.729 41.5169 196.663 41.5169L196.662 41.5149Z" fill="#292A2E"/>
<path d="M203.433 40.2956C203.401 40.2954 203.369 40.2891 203.339 40.2771C203.166 40.1858 203.034 40.032 202.97 39.847C202.759 39.3969 202.417 39.0204 201.991 38.7657C201.933 38.7325 201.892 38.6779 201.874 38.6138C201.857 38.5497 201.866 38.4814 201.899 38.4239C201.932 38.3664 201.987 38.3244 202.051 38.3072C202.115 38.29 202.183 38.2989 202.24 38.3321C202.647 38.5727 202.99 38.9069 203.242 39.3068C203.301 38.9131 203.411 38.5286 203.568 38.1631C203.581 38.132 203.599 38.1037 203.623 38.0799C203.646 38.0562 203.674 38.0374 203.705 38.0247C203.736 38.012 203.769 38.0056 203.803 38.006C203.836 38.0064 203.869 38.0135 203.9 38.0269C203.93 38.0403 203.958 38.0597 203.981 38.084C204.004 38.1083 204.022 38.137 204.034 38.1683C204.045 38.1997 204.051 38.2331 204.049 38.2666C204.048 38.3 204.04 38.3328 204.025 38.3631C203.8 38.8957 203.683 39.4684 203.683 40.047C203.683 40.1133 203.656 40.1769 203.61 40.2238C203.563 40.2707 203.499 40.2971 203.433 40.2971V40.2956Z" fill="#292A2E"/>
<path d="M207.74 47.3457C207.701 47.3456 207.662 47.3361 207.626 47.3182C207.59 47.2995 207.559 47.2721 207.535 47.2384C207.512 47.2048 207.497 47.1659 207.493 47.1252C207.487 46.93 207.554 46.7399 207.682 46.5921C207.965 46.1774 208.122 45.6884 208.131 45.1857C208.131 45.1194 208.157 45.0558 208.204 45.0089C208.251 44.962 208.314 44.9357 208.38 44.9357C208.447 44.9357 208.51 44.962 208.557 45.0089C208.604 45.0558 208.63 45.1194 208.63 45.1857C208.622 45.6691 208.5 46.1437 208.275 46.5711C208.641 46.433 209.025 46.3453 209.415 46.3105C209.48 46.3056 209.545 46.3267 209.596 46.3694C209.646 46.412 209.678 46.4727 209.685 46.5386C209.687 46.5713 209.684 46.6043 209.674 46.6356C209.664 46.6668 209.648 46.6959 209.626 46.7209C209.605 46.746 209.579 46.7667 209.55 46.7817C209.521 46.7968 209.489 46.8059 209.456 46.8086C208.895 46.8623 208.351 47.0327 207.859 47.3087C207.824 47.3312 207.782 47.344 207.74 47.3457Z" fill="#292A2E"/>
<path d="M197.235 51.6903C197.199 51.6903 197.164 51.6828 197.132 51.6683C196.962 51.5708 196.836 51.4128 196.777 51.2257C196.579 50.7697 196.25 50.3834 195.832 50.1159C195.775 50.0811 195.735 50.0252 195.72 49.9607C195.704 49.8961 195.715 49.8281 195.75 49.7716C195.785 49.7151 195.84 49.6747 195.905 49.6594C195.969 49.644 196.037 49.655 196.094 49.6898C196.493 49.9432 196.826 50.2881 197.066 50.696C197.137 50.3043 197.258 49.9234 197.427 49.5628C197.439 49.5308 197.458 49.5018 197.482 49.4775C197.507 49.4532 197.536 49.4341 197.567 49.4215C197.599 49.4089 197.633 49.4031 197.668 49.4043C197.702 49.4055 197.736 49.4137 197.766 49.4285C197.797 49.4433 197.825 49.4644 197.847 49.4903C197.87 49.5163 197.887 49.5466 197.897 49.5793C197.907 49.6121 197.911 49.6466 197.907 49.6808C197.903 49.7149 197.893 49.748 197.876 49.7778C197.634 50.3033 197.5 50.872 197.482 51.4502C197.479 51.5148 197.452 51.5758 197.406 51.6206C197.359 51.6653 197.297 51.6903 197.233 51.6903H197.235Z" fill="#292A2E"/>
<path d="M203.484 54.0128C203.476 54.0133 203.467 54.0133 203.459 54.0128C203.418 54.0087 203.379 53.9945 203.345 53.9714C203.311 53.9484 203.283 53.9173 203.263 53.8808C203.189 53.7003 203.184 53.4987 203.249 53.3147C203.365 52.824 203.337 52.3099 203.166 51.8353C203.145 51.7737 203.148 51.7062 203.176 51.6473C203.204 51.5883 203.253 51.5425 203.314 51.5196C203.375 51.4967 203.443 51.4986 203.502 51.5248C203.562 51.5509 203.609 51.5994 203.633 51.6598C203.797 52.1119 203.854 52.5962 203.798 53.0741C204.087 52.8098 204.411 52.5856 204.76 52.4075C204.818 52.3809 204.885 52.3781 204.945 52.3996C205.006 52.421 205.056 52.4651 205.085 52.5227C205.114 52.5803 205.12 52.6468 205.101 52.7084C205.082 52.7701 205.04 52.8221 204.984 52.8536C204.48 53.1165 204.035 53.4806 203.677 53.9233C203.653 53.9514 203.624 53.9741 203.59 53.9895C203.557 54.005 203.521 54.013 203.484 54.0128Z" fill="#292A2E"/>
</g>
<g opacity="0.05">
<path d="M192.277 30.1507H192.251C192.211 30.1465 192.171 30.1323 192.137 30.1094C192.103 30.0864 192.075 30.0554 192.056 30.0191C191.981 29.8378 191.976 29.6349 192.042 29.45C192.158 28.96 192.129 28.4468 191.958 27.9731C191.936 27.9113 191.94 27.8432 191.967 27.7837C191.995 27.7242 192.045 27.678 192.106 27.6551C192.168 27.6322 192.236 27.6344 192.296 27.6612C192.355 27.6881 192.402 27.7374 192.426 27.7986C192.59 28.2504 192.647 28.7344 192.591 29.2119C192.88 28.948 193.204 28.7239 193.552 28.5458C193.611 28.5192 193.678 28.5164 193.738 28.5379C193.799 28.5594 193.849 28.6035 193.878 28.661C193.907 28.7186 193.913 28.7851 193.894 28.8468C193.875 28.9084 193.833 28.9604 193.777 28.9919C193.272 29.2547 192.827 29.6186 192.469 30.0611C192.445 30.0893 192.416 30.1119 192.383 30.1274C192.35 30.1428 192.313 30.1508 192.277 30.1507Z" fill="#292A2E"/>
<path d="M187.031 24.5523C186.998 24.5524 186.966 24.5461 186.936 24.5338C186.764 24.4427 186.632 24.2891 186.568 24.1042C186.357 23.6539 186.015 23.2774 185.588 23.023C185.56 23.0066 185.535 22.9847 185.515 22.9586C185.495 22.9326 185.48 22.9028 185.472 22.8711C185.463 22.8393 185.461 22.8062 185.465 22.7736C185.47 22.741 185.48 22.7096 185.497 22.6811C185.513 22.6527 185.535 22.6277 185.561 22.6077C185.587 22.5877 185.617 22.573 185.648 22.5645C185.68 22.5559 185.713 22.5537 185.745 22.558C185.778 22.5623 185.809 22.5729 185.838 22.5894C186.244 22.83 186.588 23.1641 186.84 23.5641C186.899 23.1704 187.008 22.7859 187.166 22.4203C187.179 22.3902 187.198 22.363 187.221 22.3402C187.245 22.3174 187.273 22.2995 187.303 22.2875C187.334 22.2755 187.367 22.2697 187.399 22.2703C187.432 22.271 187.465 22.2781 187.495 22.2913C187.555 22.3179 187.603 22.3676 187.627 22.4293C187.651 22.4909 187.649 22.5597 187.623 22.6204C187.398 23.1531 187.281 23.7257 187.281 24.3043C187.281 24.3706 187.254 24.4342 187.207 24.4811C187.161 24.528 187.097 24.5543 187.031 24.5543V24.5523Z" fill="#292A2E"/>
<path d="M186.19 30.5072C186.157 30.5072 186.125 30.5007 186.095 30.4882C185.922 30.3964 185.79 30.2424 185.726 30.0571C185.515 29.6075 185.174 29.2315 184.748 28.9774C184.69 28.9442 184.648 28.8896 184.631 28.8255C184.614 28.7614 184.623 28.693 184.656 28.6355C184.689 28.578 184.744 28.5361 184.808 28.5189C184.872 28.5016 184.94 28.5106 184.997 28.5438C185.404 28.7839 185.748 29.1181 186 29.5185C186.059 29.1247 186.169 28.7403 186.326 28.3747C186.339 28.3436 186.357 28.3154 186.381 28.2916C186.404 28.2678 186.432 28.249 186.463 28.2363C186.494 28.2236 186.527 28.2173 186.561 28.2177C186.594 28.218 186.627 28.2251 186.658 28.2385C186.688 28.2519 186.716 28.2714 186.739 28.2957C186.762 28.32 186.78 28.3487 186.792 28.38C186.803 28.4114 186.809 28.4448 186.807 28.4782C186.806 28.5117 186.798 28.5445 186.783 28.5748C186.558 29.1078 186.441 29.6807 186.44 30.2597C186.44 30.3005 186.429 30.3407 186.41 30.3766C186.391 30.4125 186.363 30.4431 186.329 30.4657C186.287 30.4928 186.239 30.5072 186.19 30.5072Z" fill="#292A2E"/>
<path d="M190.497 37.5589C190.458 37.5589 190.419 37.5495 190.383 37.5314C190.347 37.5127 190.315 37.4852 190.292 37.4515C190.269 37.4177 190.254 37.3787 190.249 37.3379C190.244 37.1432 190.312 36.9537 190.438 36.8057C190.722 36.3909 190.878 35.9018 190.887 35.3989C190.888 35.333 190.915 35.27 190.961 35.2237C191.008 35.1773 191.071 35.1513 191.137 35.1513C191.203 35.1513 191.267 35.1777 191.313 35.2246C191.36 35.2715 191.386 35.3351 191.386 35.4014C191.378 35.8844 191.256 36.3587 191.031 36.7857C191.398 36.6473 191.781 36.5598 192.171 36.5257C192.237 36.5218 192.302 36.5434 192.352 36.586C192.402 36.6285 192.434 36.6888 192.44 36.7542C192.446 36.8203 192.425 36.8857 192.382 36.9363C192.339 36.9868 192.278 37.0183 192.212 37.0238C191.651 37.0771 191.107 37.2474 190.615 37.5239C190.58 37.5455 190.539 37.5575 190.497 37.5589Z" fill="#292A2E"/>
<path d="M185.278 36.005C185.101 35.9893 184.935 35.9156 184.805 35.7955C184.415 35.4969 183.943 35.325 183.452 35.3029C183.419 35.3018 183.387 35.2943 183.357 35.2808C183.327 35.2673 183.3 35.248 183.278 35.224C183.256 35.2001 183.238 35.1719 183.226 35.1411C183.215 35.1104 183.21 35.0777 183.211 35.0448C183.211 35.0119 183.218 34.9794 183.232 34.9492C183.245 34.9191 183.264 34.892 183.288 34.8694C183.312 34.8468 183.34 34.8293 183.371 34.8179C183.402 34.8064 183.435 34.8013 183.468 34.8028C183.938 34.8223 184.396 34.9565 184.803 35.1939C184.675 34.8122 184.598 34.4156 184.574 34.0141C184.57 33.9479 184.593 33.883 184.637 33.8335C184.681 33.7841 184.743 33.7543 184.809 33.7505C184.842 33.7469 184.875 33.7502 184.907 33.7604C184.939 33.7706 184.968 33.7873 184.993 33.8095C185.017 33.8317 185.037 33.8589 185.051 33.8894C185.064 33.9198 185.072 33.9527 185.072 33.9861C185.111 34.5628 185.265 35.1259 185.525 35.642C185.543 35.6781 185.552 35.718 185.551 35.7584C185.551 35.7987 185.54 35.8383 185.521 35.8737C185.501 35.909 185.474 35.9392 185.44 35.9615C185.407 35.9839 185.368 35.9978 185.328 36.002C185.311 36.004 185.295 36.005 185.278 36.005Z" fill="#292A2E"/>
</g>
<path d="M117.56 77.2123H173.212V61.2085L117.56 61.2085V77.2123Z" fill="#F4F4F4"/>
<path opacity="0.05" d="M117.56 77.2123H173.212V61.2085L117.56 61.2085V77.2123Z" fill="#292A2E"/>
<path d="M125.033 77.2123H132.325V61.2085H125.033V77.2123Z" fill="white"/>
<path d="M135.779 73.734H166.1V64.2503H135.779V73.734Z" fill="white"/>
<path d="M104.29 61.2235L159.178 61.2235V45.2197L104.29 45.2197V61.2235Z" fill="#F4F4F4"/>
<path opacity="0.05" d="M144.615 61.2235H151.807V45.2197H144.615V61.2235Z" fill="#292A2E"/>
<path d="M111.304 57.7457L141.208 57.7457V48.2619H111.304V57.7457Z" fill="white"/>
<path d="M77.4905 77.2119L113.646 34.8162L101.505 24.4189L65.3496 66.8147L77.4905 77.2119Z" fill="#F4F4F4"/>
<path opacity="0.05" d="M82.3458 71.5187L87.0836 65.9632L74.9426 55.566L70.2049 61.1214L82.3458 71.5187Z" fill="#292A2E"/>
<path opacity="0.05" d="M86.6889 61.0726L106.388 37.9741L99.1929 31.8127L79.4943 54.9112L86.6889 61.0726Z" fill="#292A2E"/>
<path d="M218.988 76.9203H58.3005V83.2478H218.988V76.9203Z" fill="#F4F4F4"/>
<path d="M506.57 0H304.404V202.589H506.57V0Z" fill="#F4F4F4"/>
<path d="M508.887 0H506.57V202.589H508.887V0Z" fill="#F4F4F4"/>
<path opacity="0.05" d="M508.887 0H506.57V202.589H508.887V0Z" fill="#292A2E"/>
<path opacity="0.05" d="M457.594 139.6V86.5966H414.267V117.39H347.153V171.915H318.628V202.589H347.153H352.648H496.845V139.6H457.594Z" fill="#292A2E"/>
<path opacity="0.34" d="M451.38 92.3514H419.829V98.1063H451.38V92.3514Z" fill="#FFFFFA"/>
<path opacity="0.34" d="M451.38 104.277H419.829V110.032H451.38V104.277Z" fill="#FFFFFA"/>
<path opacity="0.34" d="M451.38 116.203H419.829V121.957H451.38V116.203Z" fill="#FFFFFA"/>
<path opacity="0.34" d="M491.25 145.186H485.435V150.941H491.25V145.186Z" fill="#FFFFFA"/>
<path opacity="0.34" d="M491.25 157.112H485.435V162.867H491.25V157.112Z" fill="#FFFFFA"/>
<path opacity="0.34" d="M491.25 169.038H485.435V174.793H491.25V169.038Z" fill="#FFFFFA"/>
<path opacity="0.34" d="M480.492 145.186H474.676V150.941H480.492V145.186Z" fill="#FFFFFA"/>
<path opacity="0.34" d="M480.492 157.112H474.676V162.867H480.492V157.112Z" fill="#FFFFFA"/>
<path opacity="0.34" d="M480.492 169.038H474.676V174.793H480.492V169.038Z" fill="#FFFFFA"/>
<path opacity="0.34" d="M470.024 145.186H464.209V150.941H470.024V145.186Z" fill="#FFFFFA"/>
<path opacity="0.34" d="M470.024 157.112H464.209V162.867H470.024V157.112Z" fill="#FFFFFA"/>
<path opacity="0.34" d="M470.024 169.038H464.209V174.793H470.024V169.038Z" fill="#FFFFFA"/>
<path d="M506.57 100.158H465.891V0H462.526V100.158H352.648V0H349.284V100.158H304.404V103.529H349.284V202.589H352.648V103.529H462.526V202.589H465.891V103.529H506.57V100.158Z" fill="white"/>
<path d="M514.623 202.344H296.35V209.081H514.623V202.344Z" fill="#F4F4F4"/>
<path opacity="0.1" d="M514.623 202.344H296.35V209.081H514.623V202.344Z" fill="#292A2E"/>
<path opacity="0.1" d="M517.775 202.344H514.623V209.081H517.775V202.344Z" fill="#292A2E"/>
<path opacity="0.1" d="M517.775 202.344H514.623V209.081H517.775V202.344Z" fill="#292A2E"/>
<path d="M421.901 328.781H78.5245C74.266 328.781 70.1819 330.476 67.1707 333.493C64.1595 336.511 62.4678 340.603 62.4678 344.871V354.781C62.4679 359.049 64.1597 363.141 67.1709 366.159C70.1821 369.176 74.2661 370.871 78.5245 370.872H97.9456L87.5698 414.554H97.5802L113.49 370.872H386.833L402.397 414.554H412.853L402.477 370.872H421.898C426.156 370.872 430.24 369.176 433.252 366.159C436.263 363.141 437.954 359.049 437.954 354.781V344.871C437.954 340.604 436.263 336.512 433.253 333.494C430.242 330.477 426.159 328.781 421.901 328.781Z" fill="#262626"/>
<path opacity="0.2" d="M421.901 328.781H78.5245C74.2661 328.781 70.1821 330.476 67.1709 333.493C64.1597 336.511 62.4679 340.604 62.4678 344.871V354.781C62.4679 359.049 64.1597 363.141 67.1709 366.158C70.1821 369.176 74.2661 370.871 78.5245 370.871H97.9456L87.5698 414.554H97.5802L113.49 370.871H386.833L402.397 414.554H412.853L402.477 370.871H421.898C424.006 370.871 426.094 370.455 428.042 369.646C429.99 368.838 431.761 367.653 433.252 366.159C434.743 364.665 435.925 362.891 436.732 360.939C437.539 358.987 437.954 356.894 437.954 354.781V344.871C437.954 340.604 436.263 336.512 433.253 333.494C430.242 330.477 426.159 328.781 421.901 328.781Z" fill="white"/>
<path d="M91.8194 140.083H408.606C421.179 140.083 433.238 145.088 442.128 153.998C451.019 162.907 456.014 174.991 456.014 187.591V311.77C456.014 316.318 454.211 320.68 451.002 323.896C447.793 327.111 443.44 328.918 438.902 328.918H61.5235C56.9851 328.918 52.6325 327.111 49.4233 323.896C46.2142 320.68 44.4113 316.318 44.4113 311.77V187.591C44.4113 174.991 49.406 162.907 58.2968 153.998C67.1875 145.088 79.246 140.083 91.8194 140.083Z" fill="#367CFF"/>
<path opacity="0.74" d="M91.8194 140.083H408.606C421.179 140.083 433.238 145.088 442.128 153.998C451.019 162.907 456.014 174.991 456.014 187.591V311.77C456.014 316.318 454.211 320.68 451.002 323.896C447.793 327.111 443.44 328.918 438.902 328.918H61.5235C56.9851 328.918 52.6325 327.111 49.4233 323.896C46.2142 320.68 44.4113 316.318 44.4113 311.77V187.591C44.4113 174.991 49.406 162.907 58.2968 153.998C67.1875 145.088 79.246 140.083 91.8194 140.083Z" fill="white"/>
<path d="M483.517 198.95C477.388 196.998 470.736 197.564 465.024 200.526C459.313 203.488 455.009 208.603 453.06 214.744L420.765 303.142H79.66L47.3663 214.744C46.4194 211.682 44.877 208.837 42.828 206.374C40.7789 203.911 38.2638 201.879 35.4274 200.395C32.5911 198.911 29.4897 198.004 26.3019 197.726C23.1141 197.448 19.903 197.806 16.8537 198.777C13.8043 199.749 10.9771 201.316 8.53475 203.387C6.09245 205.459 4.08344 207.995 2.62349 210.848C1.16354 213.701 0.281524 216.816 0.0282793 220.012C-0.224966 223.209 0.155565 226.424 1.14794 229.472L38.8146 334.806C40.3743 339.722 43.4543 344.013 47.6089 347.057C51.7635 350.102 56.7771 351.744 61.9243 351.744H438.501C443.648 351.744 448.662 350.102 452.816 347.057C456.971 344.013 460.051 339.722 461.611 334.806L499.279 229.472C500.244 226.431 500.602 223.229 500.332 220.049C500.062 216.869 499.17 213.774 497.706 210.94C496.243 208.106 494.236 205.588 491.802 203.531C489.367 201.474 486.552 199.917 483.517 198.95Z" fill="#367CFF"/>
<path opacity="0.87" d="M483.517 198.95C477.388 196.998 470.736 197.564 465.024 200.526C459.313 203.488 455.009 208.603 453.06 214.744L420.765 303.142H79.66L47.3663 214.744C46.4194 211.682 44.877 208.837 42.828 206.374C40.7789 203.911 38.2638 201.879 35.4274 200.395C32.5911 198.911 29.4897 198.004 26.3019 197.726C23.1141 197.448 19.903 197.806 16.8537 198.777C13.8043 199.749 10.9771 201.316 8.53475 203.387C6.09245 205.459 4.08344 207.995 2.62349 210.848C1.16354 213.701 0.281524 216.816 0.0282793 220.012C-0.224966 223.209 0.155565 226.424 1.14794 229.472L38.8146 334.806C40.3743 339.722 43.4543 344.013 47.6089 347.057C51.7635 350.102 56.7771 351.744 61.9243 351.744H438.501C443.648 351.744 448.662 350.102 452.816 347.057C456.971 344.013 460.051 339.722 461.611 334.806L499.279 229.472C500.244 226.431 500.602 223.229 500.332 220.049C500.062 216.869 499.17 213.774 497.706 210.94C496.243 208.106 494.236 205.588 491.802 203.531C489.367 201.474 486.552 199.917 483.517 198.95Z" fill="white"/>
<path d="M545.326 414.999H9.98156C9.92188 415.001 9.86241 414.99 9.80668 414.969C9.75095 414.947 9.70011 414.915 9.65719 414.873C9.61426 414.832 9.58012 414.782 9.55681 414.727C9.5335 414.672 9.52148 414.613 9.52148 414.553C9.52148 414.493 9.5335 414.434 9.55681 414.378C9.58012 414.323 9.61426 414.274 9.65719 414.232C9.70011 414.19 9.75095 414.158 9.80668 414.136C9.86241 414.115 9.92188 414.105 9.98156 414.107H545.326C545.386 414.105 545.445 414.115 545.501 414.136C545.557 414.158 545.607 414.19 545.65 414.232C545.693 414.274 545.727 414.323 545.751 414.378C545.774 414.434 545.786 414.493 545.786 414.553C545.786 414.613 545.774 414.672 545.751 414.727C545.727 414.782 545.693 414.832 545.65 414.873C545.607 414.915 545.557 414.947 545.501 414.969C545.445 414.99 545.386 415.001 545.326 414.999Z" fill="#292A2E"/>
<g opacity="0.65">
<path d="M545.326 414.999H9.98156C9.92188 415.001 9.86241 414.99 9.80668 414.969C9.75095 414.947 9.70011 414.915 9.65719 414.873C9.61426 414.832 9.58012 414.782 9.55681 414.727C9.5335 414.672 9.52148 414.613 9.52148 414.553C9.52148 414.493 9.5335 414.434 9.55681 414.378C9.58012 414.323 9.61426 414.274 9.65719 414.232C9.70011 414.19 9.75095 414.158 9.80668 414.136C9.86241 414.115 9.92188 414.105 9.98156 414.107H545.326C545.386 414.105 545.445 414.115 545.501 414.136C545.557 414.158 545.607 414.19 545.65 414.232C545.693 414.274 545.727 414.323 545.751 414.378C545.774 414.434 545.786 414.493 545.786 414.553C545.786 414.613 545.774 414.672 545.751 414.727C545.727 414.782 545.693 414.832 545.65 414.873C545.607 414.915 545.557 414.947 545.501 414.969C545.445 414.99 545.386 415.001 545.326 414.999Z" fill="#292A2E"/>
</g>
<path d="M360.739 264.917L265.621 195.463C261.7 192.553 257.032 190.823 252.164 190.477C247.297 190.131 242.431 191.182 238.139 193.508L236.337 194.486L124.102 251.771L157.424 302.402L250.352 241.219L338.019 297.864L360.739 264.917Z" fill="#262626"/>
<path opacity="0.8" d="M360.739 264.917L265.621 195.463C261.7 192.553 257.032 190.823 252.164 190.477C247.297 190.131 242.431 191.182 238.139 193.508L236.337 194.486L124.102 251.771L157.424 302.402L250.352 241.219L338.019 297.864L360.739 264.917Z" fill="#0A0A0A"/>
<path d="M60.199 199.897C60.1477 199.908 60.0944 199.899 60.0486 199.874C60.0027 199.849 59.9672 199.808 59.9484 199.759C59.9295 199.71 59.9285 199.656 59.9455 199.607C59.9625 199.557 59.9964 199.515 60.0413 199.488L71.0744 192.758C71.0993 192.741 71.1274 192.73 71.1568 192.724C71.1863 192.719 71.2166 192.719 71.2458 192.726C71.2751 192.732 71.3027 192.745 71.3271 192.762C71.3515 192.779 71.3721 192.802 71.3877 192.827C71.4033 192.853 71.4136 192.882 71.4179 192.911C71.4223 192.941 71.4206 192.971 71.4129 193C71.4053 193.029 71.3919 193.057 71.3735 193.08C71.3551 193.104 71.3321 193.124 71.3059 193.138L60.2729 199.869C60.2502 199.883 60.2251 199.893 60.199 199.897Z" fill="#0C0C0C"/>
<path d="M380.117 273.576C380.117 273.576 395.273 272.703 397.95 258.952C400.626 245.201 411.245 249.686 411.245 249.686L404.163 302.658L377.752 299.112L380.117 273.576Z" fill="#367CFF"/>
<path d="M141.6 240.246L70.6766 245.508C70.6766 245.508 67.3553 259.132 72.2926 274.601C76.385 287.421 85.8675 302.284 107.651 302.699H383.715L385.551 266.391L141.6 240.246Z" fill="#262626"/>
<path d="M114.283 88.55C114.283 88.55 119.985 82.203 119.394 70.2557C118.936 61.0035 111.776 68.4447 111.776 68.4447C111.776 68.4447 111.381 61.7867 106.788 63.346C102.195 64.9054 100.868 72.2371 100.868 72.2371" fill="#0C0C0C"/>
<path d="M82.5411 68.8383C82.5411 68.8383 59.6111 75.897 74.2185 106.051L76.3177 105.789L80.5783 105.255" fill="#0C0C0C"/>
<path d="M118.588 131.895C118.483 131.902 121.01 151.119 98.6682 153.736C83.2014 155.549 74.6343 140.394 74.2849 140.462C75.861 139.793 77.7894 138.868 78.5615 138.529C80.2419 137.778 81.6544 136.533 82.6112 134.958C83.5679 133.384 84.0236 131.554 83.9176 129.714C83.8432 126.935 80.424 113.306 80.1321 110.537L104.545 111.231C105.33 117.048 105.618 130.831 114.096 131.636C115.506 131.767 117.013 131.847 118.588 131.895Z" fill="#E98862"/>
<path d="M107.965 127.169C107.37 126.057 106.898 124.883 106.558 123.668C105.756 120.899 105.259 118.051 105.075 115.173C100.195 115.453 95.3335 114.355 91.0443 112.004C90.9206 113.696 89.888 121.187 90.8447 122.587C92.6539 125.23 99.4453 128.822 107.965 127.169Z" fill="#0C0C0C"/>
<path d="M102.41 124.346C93.0177 125.308 80.8383 121.606 78.2551 109.078L75.9224 97.7757C73.3367 85.2482 77.8064 73.732 89.5776 71.2924C101.348 68.8528 112.242 77.1848 114.828 89.7123L115.861 94.7165C116.186 96.4409 116.393 98.1855 116.48 99.9382C116.747 104.569 117.135 111.612 114.975 116.847C112.931 121.788 108.409 123.732 102.41 124.346Z" fill="#E98862"/>
<path d="M104.474 112.036C106.397 111.753 108.226 111.021 109.815 109.9C109.879 109.854 109.923 109.784 109.937 109.706C109.951 109.628 109.934 109.547 109.89 109.482C109.846 109.416 109.777 109.37 109.7 109.354C109.622 109.338 109.541 109.353 109.475 109.396C106.037 111.725 102.587 112.15 99.5037 110.627C99.4413 110.595 99.3772 110.565 99.3116 110.54C99.2363 110.517 99.155 110.524 99.085 110.56C99.0149 110.596 98.9615 110.658 98.9361 110.732C98.9107 110.807 98.9151 110.889 98.9486 110.96C98.982 111.031 99.0419 111.087 99.1154 111.115C99.1394 111.124 99.1798 111.145 99.2357 111.173C100.857 111.976 102.681 112.277 104.474 112.036Z" fill="#0C0C0C"/>
<path d="M104.932 114.883C105.28 114.837 105.624 114.762 105.96 114.658C106.034 114.632 106.096 114.578 106.132 114.508C106.167 114.438 106.174 114.356 106.151 114.281C106.128 114.206 106.077 114.142 106.008 114.104C105.939 114.066 105.858 114.056 105.782 114.077C103.762 114.696 102.595 113.941 102.546 113.908C102.479 113.865 102.399 113.85 102.321 113.866C102.243 113.882 102.175 113.927 102.131 113.993C102.086 114.059 102.069 114.139 102.084 114.218C102.098 114.296 102.142 114.365 102.206 114.411C103.033 114.879 103.996 115.046 104.932 114.883Z" fill="#0C0C0C"/>
<path d="M111.649 95.7772C112.467 95.7772 113.129 95.1131 113.129 94.2939C113.129 93.4746 112.467 92.8105 111.649 92.8105C110.832 92.8105 110.169 93.4746 110.169 94.2939C110.169 95.1131 110.832 95.7772 111.649 95.7772Z" fill="#0C0C0C"/>
<path d="M98.7012 98.0553C99.5187 98.0553 100.181 97.3911 100.181 96.5719C100.181 95.7527 99.5187 95.0886 98.7012 95.0886C97.8837 95.0886 97.2209 95.7527 97.2209 96.5719C97.2209 97.3911 97.8837 98.0553 98.7012 98.0553Z" fill="#0C0C0C"/>
<path d="M79.7698 112.744C76.1924 113.485 72.5012 110.251 71.7616 106.666C71.022 103.081 73.5134 100.504 77.0902 99.7647L79.4294 101.785L82.8466 112.106L79.7698 112.744Z" fill="#E98862"/>
<path d="M154.029 168.408C154.912 176.71 159.837 228.61 161.116 238.798L70.7445 256.33C68.4727 247.359 58.4772 208.142 53.0807 190.784C47.9308 174.22 43.8079 167.028 44.9563 161.346C46.982 151.327 58.335 144.826 66.3486 142.113C71.2426 140.456 78.7062 138.501 78.7062 138.501C78.7062 138.501 81.8504 151.35 97.2524 149.112C118.214 146.061 113.992 131.655 114.095 131.635C117.46 130.983 136.254 129.881 141.411 131.985C148.698 134.956 151.721 140.343 152.819 145.619C154.083 151.692 153.027 158.993 154.029 168.408Z" fill="#367CFF"/>
<path d="M82.2217 106.275C82.2217 106.275 79.9993 88.271 85.1663 86.1294C88.6064 84.7041 98.2745 88.1094 106.022 85.0117C109.411 83.6564 112.92 83.8809 113.582 85.4808C113.844 86.1144 114.205 76.2106 107.305 70.0866C101.81 65.2105 87.1391 66.3788 80.969 69.5245C63.8852 78.2336 76.5043 100.687 76.5043 100.687L78.4946 106.657L82.2217 106.275Z" fill="#0C0C0C"/>
<path d="M105.832 107.422L105.855 107.418C107.008 107.182 108.916 106.658 108.742 105.793C108.595 105.077 105.063 97.7442 104.661 96.9105C104.626 96.8388 104.564 96.7838 104.489 96.7577C104.414 96.7315 104.332 96.7363 104.26 96.771C104.189 96.8057 104.134 96.8674 104.108 96.9426C104.082 97.0178 104.087 97.1004 104.121 97.1721C105.688 100.419 108.054 105.424 108.154 105.913C108.082 106.141 106.929 106.585 105.736 106.829C105.657 106.842 105.587 106.886 105.541 106.95C105.494 107.015 105.475 107.095 105.488 107.174C105.501 107.253 105.544 107.323 105.609 107.369C105.673 107.416 105.754 107.435 105.832 107.422Z" fill="#0C0C0C"/>
<path d="M106.428 89.9479C106.923 89.534 107.473 89.1923 108.063 88.9331C108.646 88.6721 109.267 88.5055 109.903 88.4395C110.223 88.4089 110.546 88.4051 110.867 88.428C111.186 88.4621 111.501 88.5252 111.809 88.6165C112.414 88.7983 112.984 89.0786 113.498 89.4462C113.545 89.4746 113.585 89.5118 113.618 89.5558C113.65 89.5998 113.673 89.6497 113.686 89.7027C113.699 89.7558 113.701 89.8108 113.693 89.8647C113.685 89.9187 113.666 89.9705 113.638 90.0171C113.61 90.0638 113.572 90.1044 113.528 90.1367C113.485 90.169 113.435 90.1923 113.382 90.2053C113.329 90.2182 113.274 90.2206 113.22 90.2124C113.166 90.2041 113.115 90.1852 113.068 90.1569L113.031 90.1359C112.581 89.8536 112.088 89.6468 111.572 89.5238C111.32 89.4651 111.063 89.4291 110.804 89.4162C110.546 89.4144 110.288 89.4336 110.032 89.4737C109.516 89.559 109.017 89.7259 108.554 89.9684C108.093 90.2055 107.667 90.504 107.286 90.8556L107.261 90.8801C107.201 90.9368 107.132 90.9812 107.055 91.0108C106.978 91.0404 106.897 91.0546 106.815 91.0526C106.733 91.0506 106.652 91.0324 106.577 90.9991C106.502 90.9658 106.435 90.9181 106.378 90.8586C106.321 90.7991 106.277 90.729 106.248 90.6523C106.218 90.5757 106.204 90.4939 106.206 90.4118C106.208 90.3296 106.226 90.2487 106.259 90.1735C106.292 90.0984 106.34 90.0305 106.399 89.9739C106.408 89.9654 106.419 89.9559 106.428 89.9479Z" fill="#0C0C0C"/>
<path d="M99.0875 92.0218C98.5344 91.9004 97.9693 91.8425 97.4031 91.8493C96.8264 91.8532 96.2521 91.9254 95.6923 92.0643C95.1336 92.1977 94.5977 92.4134 94.1022 92.7045C93.6035 92.9956 93.1478 93.355 92.7482 93.7722L92.7213 93.7988C92.6446 93.8779 92.5396 93.9233 92.4295 93.925C92.3194 93.9266 92.2131 93.8844 92.1341 93.8075C92.0551 93.7306 92.0098 93.6255 92.0081 93.5151C92.0065 93.4048 92.0487 93.2983 92.1254 93.2191C92.5564 92.7141 93.0563 92.2723 93.6101 91.9068C94.1654 91.5378 94.772 91.253 95.4103 91.0616C96.0438 90.8659 96.6981 90.7457 97.3597 90.7035C98.0319 90.6574 98.7071 90.691 99.3714 90.8035C99.5346 90.8321 99.6797 90.9244 99.775 91.0601C99.8702 91.1959 99.9077 91.364 99.8793 91.5275C99.8508 91.6909 99.7587 91.8364 99.6232 91.9318C99.4877 92.0273 99.32 92.0649 99.1568 92.0363L99.1239 92.0298L99.0875 92.0218Z" fill="#0C0C0C"/>
<path d="M102.338 77.4469C104.885 76.3763 105.674 72.463 104.102 68.7064C102.529 64.9497 99.1898 62.7723 96.643 63.8429C94.0962 64.9135 93.3064 68.8268 94.879 72.5834C96.4516 76.3401 99.7911 78.5175 102.338 77.4469Z" fill="#0C0C0C"/>
<path d="M218.482 118.457C218.2 118.238 217.872 118.085 217.523 118.009C217.174 117.932 216.813 117.934 216.465 118.014C216.117 118.095 215.791 118.252 215.511 118.474C215.23 118.696 215.003 118.977 214.844 119.298L216.231 116.488C216.525 115.924 216.593 115.269 216.423 114.656C216.253 114.044 215.857 113.518 215.315 113.187C215.029 113.026 214.714 112.925 214.389 112.89C214.063 112.855 213.734 112.887 213.421 112.984C213.108 113.08 212.818 113.24 212.569 113.453C212.32 113.665 212.116 113.927 211.971 114.221L212.599 112.949C212.86 112.442 212.939 111.86 212.821 111.302C212.704 110.744 212.397 110.243 211.954 109.885C211.671 109.666 211.343 109.513 210.995 109.437C210.646 109.36 210.284 109.362 209.936 109.443C209.588 109.523 209.262 109.68 208.982 109.902C208.702 110.124 208.474 110.405 208.316 110.726L207.218 112.953C207.501 112.378 207.545 111.715 207.341 111.108C207.136 110.501 206.699 110 206.126 109.716C204.903 109.005 203.497 110.034 202.94 111.163L197.75 121.23L197.899 117.97C197.942 117.336 197.742 116.709 197.341 116.217C196.94 115.724 196.367 115.403 195.739 115.317C195.413 115.284 195.084 115.318 194.771 115.417C194.459 115.516 194.17 115.678 193.922 115.892C193.674 116.106 193.472 116.369 193.329 116.664C193.185 116.96 193.104 117.281 193.088 117.609L191.898 143.203L199.665 143.788C202.076 143.97 204.487 143.425 206.588 142.225C208.69 141.025 210.385 139.224 211.458 137.052L219.126 121.521C219.388 121.014 219.467 120.433 219.349 119.874C219.232 119.316 218.926 118.815 218.482 118.457Z" fill="#E98862"/>
<path d="M202.31 122.429C202.362 122.454 202.422 122.458 202.478 122.439C202.533 122.421 202.579 122.381 202.605 122.329L207.528 112.749C207.543 112.723 207.551 112.694 207.554 112.665C207.557 112.635 207.554 112.606 207.545 112.577C207.537 112.549 207.522 112.523 207.503 112.5C207.484 112.477 207.461 112.458 207.435 112.445C207.408 112.431 207.379 112.423 207.35 112.421C207.32 112.418 207.291 112.422 207.263 112.431C207.234 112.441 207.208 112.456 207.186 112.475C207.164 112.495 207.146 112.519 207.133 112.545L202.209 122.129C202.196 122.155 202.188 122.183 202.185 122.213C202.183 122.242 202.186 122.271 202.195 122.299C202.204 122.327 202.218 122.353 202.237 122.375C202.256 122.397 202.279 122.416 202.305 122.429H202.31Z" fill="#E98862"/>
<path d="M206.467 124.723C206.52 124.748 206.58 124.752 206.635 124.733C206.69 124.715 206.736 124.675 206.762 124.623L212.257 113.932C212.284 113.88 212.289 113.818 212.271 113.762C212.253 113.706 212.214 113.659 212.161 113.632C212.109 113.607 212.048 113.603 211.993 113.621C211.937 113.639 211.89 113.677 211.862 113.728L206.368 124.421C206.341 124.473 206.336 124.534 206.354 124.591C206.372 124.647 206.411 124.694 206.464 124.721L206.467 124.723Z" fill="#E98862"/>
<path d="M210.954 127.23C211.006 127.255 211.066 127.259 211.121 127.24C211.177 127.222 211.222 127.182 211.249 127.13L215.631 118.602C215.646 118.576 215.654 118.547 215.657 118.518C215.66 118.488 215.657 118.458 215.648 118.43C215.64 118.402 215.625 118.375 215.606 118.353C215.587 118.33 215.564 118.311 215.538 118.298C215.511 118.284 215.482 118.276 215.453 118.274C215.423 118.271 215.394 118.275 215.366 118.284C215.337 118.294 215.311 118.309 215.289 118.328C215.267 118.348 215.249 118.371 215.236 118.398L210.853 126.93C210.839 126.956 210.831 126.985 210.829 127.014C210.826 127.043 210.83 127.072 210.839 127.1C210.848 127.128 210.862 127.154 210.881 127.176C210.9 127.198 210.923 127.217 210.949 127.23H210.954Z" fill="#E98862"/>
<g opacity="0.1">
<path d="M202.31 122.429C202.362 122.454 202.422 122.458 202.478 122.439C202.533 122.421 202.579 122.381 202.605 122.329L207.528 112.749C207.543 112.723 207.551 112.694 207.554 112.665C207.557 112.635 207.554 112.606 207.545 112.577C207.537 112.549 207.522 112.523 207.503 112.5C207.484 112.477 207.461 112.458 207.435 112.445C207.408 112.431 207.379 112.423 207.35 112.421C207.32 112.418 207.291 112.422 207.263 112.431C207.234 112.441 207.208 112.456 207.186 112.475C207.164 112.495 207.146 112.519 207.133 112.545L202.209 122.129C202.196 122.155 202.188 122.183 202.185 122.213C202.183 122.242 202.186 122.271 202.195 122.299C202.204 122.327 202.218 122.353 202.237 122.375C202.256 122.397 202.279 122.416 202.305 122.429H202.31Z" fill="#0C0C0C"/>
</g>
<g opacity="0.1">
<path d="M206.467 124.723C206.52 124.748 206.58 124.752 206.635 124.733C206.69 124.715 206.736 124.675 206.762 124.623L212.257 113.932C212.284 113.88 212.289 113.818 212.271 113.762C212.253 113.706 212.214 113.659 212.161 113.632C212.109 113.607 212.048 113.603 211.993 113.621C211.937 113.639 211.89 113.677 211.862 113.728L206.368 124.421C206.341 124.473 206.336 124.534 206.354 124.591C206.372 124.647 206.411 124.694 206.464 124.721L206.467 124.723Z" fill="#0C0C0C"/>
</g>
<g opacity="0.1">
<path d="M210.954 127.23C211.006 127.255 211.066 127.259 211.121 127.24C211.177 127.222 211.222 127.182 211.249 127.13L215.631 118.602C215.646 118.576 215.654 118.547 215.657 118.518C215.66 118.488 215.657 118.458 215.648 118.43C215.64 118.402 215.625 118.375 215.606 118.353C215.587 118.33 215.564 118.311 215.538 118.298C215.511 118.284 215.482 118.276 215.453 118.274C215.423 118.271 215.394 118.275 215.366 118.284C215.337 118.294 215.311 118.309 215.289 118.328C215.267 118.348 215.249 118.371 215.236 118.398L210.853 126.93C210.839 126.956 210.831 126.985 210.829 127.014C210.826 127.043 210.83 127.072 210.839 127.1C210.848 127.128 210.862 127.154 210.881 127.176C210.9 127.198 210.923 127.217 210.949 127.23H210.954Z" fill="#0C0C0C"/>
</g>
<path d="M187.855 130.848L177.347 170.752L149.328 137.747L123.289 158.664L172.312 216.409L172.546 216.703C174.498 219.138 177.098 220.97 180.045 221.986C182.993 223.003 186.167 223.163 189.201 222.448C192.235 221.732 195.005 220.171 197.191 217.945C199.377 215.718 200.889 212.917 201.553 209.865L217.202 137.93L187.855 130.848Z" fill="#367CFF"/>
<path d="M156.865 206.872C156.852 206.874 156.839 206.876 156.826 206.876C156.797 206.876 156.768 206.871 156.741 206.86C156.713 206.849 156.689 206.833 156.668 206.812C156.647 206.792 156.63 206.768 156.618 206.741C156.607 206.714 156.601 206.685 156.6 206.656L156.223 179.496C156.222 179.436 156.244 179.379 156.286 179.337C156.327 179.295 156.383 179.27 156.442 179.27C156.501 179.269 156.558 179.291 156.6 179.333C156.643 179.374 156.667 179.43 156.668 179.49L157.045 206.65C157.046 206.702 157.028 206.753 156.995 206.793C156.963 206.834 156.917 206.862 156.865 206.872Z" fill="#0C0C0C"/>
<path d="M160.264 159.949L137.111 164.441L142.608 192.895L165.761 188.403L160.264 159.949Z" fill="#FFFAFA"/>
<path d="M141.615 187.756C139.822 188.104 137.965 187.911 136.281 187.202C134.597 186.493 133.16 185.299 132.153 183.772C131.146 182.244 130.614 180.452 130.623 178.621C130.632 176.791 131.183 175.004 132.206 173.487C133.228 171.97 134.677 170.791 136.368 170.099C138.06 169.407 139.918 169.233 141.708 169.6C143.498 169.966 145.139 170.856 146.424 172.157C147.709 173.458 148.581 175.112 148.928 176.909C149.391 179.319 148.881 181.814 147.51 183.848C146.139 185.881 144.019 187.287 141.615 187.756ZM138.696 172.645C137.507 172.876 136.413 173.454 135.552 174.308C134.692 175.161 134.103 176.252 133.861 177.44C133.619 178.629 133.733 179.863 134.191 180.987C134.649 182.11 135.429 183.072 136.432 183.752C137.435 184.431 138.617 184.797 139.828 184.803C141.039 184.809 142.224 184.455 143.234 183.787C144.245 183.118 145.034 182.164 145.503 181.045C145.972 179.926 146.1 178.693 145.87 177.502C145.559 175.905 144.629 174.497 143.284 173.586C141.938 172.676 140.287 172.337 138.693 172.645H138.696Z" fill="#FFFAFA"/>
<path d="M151.824 154.487C151.727 154.505 151.627 154.491 151.539 154.447C151.451 154.402 151.38 154.329 151.338 154.24C151.296 154.151 151.284 154.05 151.305 153.953C151.326 153.857 151.379 153.77 151.454 153.706C153.342 152.129 152.963 148.851 151.504 146.593C150.809 145.577 150.039 144.615 149.2 143.714C148.099 142.565 147.138 141.289 146.336 139.913C145.467 138.225 145.067 136.333 145.179 134.437C145.292 132.54 145.912 130.709 146.975 129.136C147.042 129.039 147.145 128.973 147.261 128.952C147.378 128.931 147.497 128.958 147.594 129.025C147.691 129.093 147.757 129.196 147.778 129.312C147.798 129.429 147.772 129.549 147.705 129.646C146.734 131.083 146.167 132.757 146.064 134.489C145.962 136.222 146.327 137.951 147.121 139.494C147.89 140.808 148.811 142.026 149.866 143.122C150.736 144.056 151.533 145.054 152.252 146.109C153.899 148.659 154.378 152.426 152.025 154.392C151.967 154.44 151.898 154.472 151.824 154.487Z" fill="#FFFAFA"/>
<path d="M141.238 147.535C141.158 147.551 141.075 147.544 140.998 147.515C140.921 147.486 140.854 147.437 140.803 147.372C139.072 145.16 136.918 142.408 136.478 139.186C136.128 136.623 136.882 134.13 137.613 131.718C138.106 130.238 138.476 128.72 138.721 127.179C138.738 127.064 138.8 126.96 138.893 126.89C138.985 126.82 139.102 126.789 139.217 126.804C139.333 126.819 139.438 126.878 139.51 126.97C139.582 127.061 139.615 127.177 139.603 127.293C139.354 128.883 138.973 130.45 138.464 131.977C137.729 134.403 137.036 136.695 137.36 139.064C137.767 142.048 139.752 144.584 141.502 146.822C141.538 146.868 141.565 146.921 141.58 146.977C141.596 147.034 141.6 147.093 141.593 147.151C141.586 147.209 141.568 147.265 141.539 147.316C141.511 147.367 141.472 147.412 141.427 147.448C141.372 147.492 141.307 147.521 141.238 147.535Z" fill="#FFFAFA"/>
<path d="M141.132 186.649C140.991 186.327 140.781 186.04 140.516 185.809C140.252 185.579 139.939 185.41 139.601 185.315C139.264 185.22 138.909 185.201 138.564 185.26C138.218 185.319 137.889 185.454 137.602 185.656L140.118 183.89C140.635 183.542 141.002 183.01 141.143 182.402C141.285 181.794 141.19 181.155 140.879 180.614C140.709 180.341 140.485 180.105 140.221 179.921C139.957 179.737 139.658 179.609 139.343 179.544C139.028 179.48 138.703 179.48 138.388 179.546C138.073 179.612 137.775 179.741 137.511 179.926L138.65 179.125C139.113 178.812 139.455 178.348 139.616 177.811C139.777 177.275 139.749 176.699 139.535 176.181C139.394 175.859 139.184 175.572 138.919 175.342C138.655 175.111 138.342 174.942 138.005 174.847C137.667 174.752 137.312 174.733 136.967 174.792C136.621 174.851 136.292 174.986 136.005 175.188L134.009 176.588C134.523 176.227 134.873 175.676 134.982 175.056C135.091 174.436 134.95 173.799 134.59 173.283C133.87 172.094 132.176 172.317 131.165 173.027L127.066 175.69L128.145 174.065C128.479 173.539 128.602 172.905 128.488 172.291C128.374 171.677 128.032 171.13 127.531 170.759C127.265 170.577 126.966 170.451 126.65 170.388C126.334 170.326 126.009 170.329 125.695 170.396C125.38 170.464 125.083 170.595 124.821 170.782C124.558 170.969 124.337 171.207 124.169 171.482L111.693 191.859L118.109 196.03C120.102 197.325 122.436 197.995 124.811 197.952C127.186 197.91 129.494 197.159 131.44 195.793L140.243 189.592C140.707 189.279 141.049 188.816 141.211 188.279C141.373 187.743 141.345 187.167 141.132 186.649Z" fill="#E98862"/>
<path d="M131.517 178.368C131.466 178.378 131.413 178.37 131.368 178.346C131.322 178.321 131.286 178.281 131.267 178.232C131.248 178.184 131.246 178.131 131.262 178.081C131.278 178.032 131.311 177.989 131.355 177.962L134.135 176.192C134.184 176.162 134.244 176.152 134.301 176.165C134.358 176.178 134.408 176.213 134.439 176.263C134.47 176.312 134.481 176.372 134.469 176.429C134.456 176.487 134.422 176.537 134.373 176.569L131.594 178.338C131.57 178.353 131.544 178.363 131.517 178.368Z" fill="#E98862"/>
<path d="M134.02 182.306C133.969 182.316 133.917 182.308 133.871 182.283C133.826 182.258 133.791 182.218 133.771 182.171C133.752 182.123 133.75 182.069 133.766 182.02C133.781 181.971 133.813 181.928 133.857 181.9L137.65 179.443C137.699 179.411 137.759 179.4 137.817 179.412C137.874 179.425 137.925 179.46 137.957 179.509C137.989 179.559 138 179.619 137.987 179.677C137.975 179.735 137.94 179.785 137.891 179.817L134.098 182.275C134.074 182.29 134.047 182.301 134.02 182.306Z" fill="#E98862"/>
<path d="M136.706 186.587C136.655 186.597 136.602 186.588 136.557 186.563C136.511 186.537 136.476 186.497 136.457 186.448C136.438 186.4 136.437 186.346 136.454 186.296C136.47 186.247 136.504 186.205 136.548 186.178L138.367 185.059C138.392 185.043 138.42 185.032 138.449 185.026C138.479 185.021 138.509 185.021 138.538 185.028C138.567 185.034 138.595 185.047 138.619 185.064C138.643 185.081 138.664 185.103 138.68 185.129C138.695 185.154 138.706 185.183 138.71 185.212C138.714 185.242 138.713 185.272 138.705 185.301C138.698 185.33 138.685 185.357 138.667 185.381C138.648 185.405 138.626 185.425 138.6 185.439L136.781 186.558C136.758 186.572 136.733 186.582 136.706 186.587Z" fill="#E98862"/>
<path opacity="0.17" d="M131.517 178.368C131.466 178.378 131.413 178.37 131.368 178.346C131.322 178.321 131.286 178.281 131.267 178.232C131.248 178.184 131.246 178.131 131.262 178.081C131.278 178.032 131.311 177.989 131.355 177.962L134.135 176.192C134.184 176.162 134.244 176.152 134.301 176.165C134.358 176.178 134.408 176.213 134.439 176.263C134.47 176.312 134.481 176.372 134.469 176.429C134.456 176.487 134.422 176.537 134.373 176.569L131.594 178.338C131.57 178.353 131.544 178.363 131.517 178.368Z" fill="#0C0C0C"/>
<path opacity="0.17" d="M134.02 182.306C133.969 182.316 133.917 182.308 133.871 182.283C133.826 182.258 133.791 182.218 133.771 182.171C133.752 182.123 133.75 182.069 133.766 182.02C133.781 181.971 133.813 181.928 133.857 181.9L137.65 179.443C137.699 179.411 137.759 179.4 137.817 179.412C137.874 179.425 137.925 179.46 137.957 179.509C137.989 179.559 138 179.619 137.987 179.677C137.975 179.735 137.94 179.785 137.891 179.817L134.098 182.275C134.074 182.29 134.047 182.301 134.02 182.306Z" fill="#0C0C0C"/>
<path opacity="0.17" d="M136.706 186.587C136.655 186.597 136.602 186.588 136.557 186.563C136.511 186.537 136.476 186.497 136.457 186.448C136.438 186.4 136.437 186.346 136.454 186.296C136.47 186.247 136.504 186.205 136.548 186.178L138.367 185.059C138.392 185.043 138.42 185.032 138.449 185.026C138.479 185.021 138.509 185.021 138.538 185.028C138.567 185.034 138.595 185.047 138.619 185.064C138.643 185.081 138.664 185.103 138.68 185.129C138.695 185.154 138.706 185.183 138.71 185.212C138.714 185.242 138.713 185.272 138.705 185.301C138.698 185.33 138.685 185.357 138.667 185.381C138.648 185.405 138.626 185.425 138.6 185.439L136.781 186.558C136.758 186.572 136.733 186.582 136.706 186.587Z" fill="#0C0C0C"/>
<path d="M52.3191 255.607C49.6764 256.12 46.949 255.985 44.3697 255.213C41.7904 254.441 39.4358 253.055 37.5067 251.174C35.5777 249.293 34.1315 246.971 33.2917 244.409C32.4518 241.846 32.2431 239.117 32.6835 236.456L44.6114 164.381C45.3548 160.024 47.7896 156.139 51.3833 153.576C54.9771 151.013 59.4374 149.98 63.789 150.703C68.1406 151.427 72.0294 153.847 74.605 157.436C77.1806 161.024 78.2335 165.489 77.5334 169.853L71.829 204.319L115.722 175.997L133.245 203.577L58.2841 253.181C56.4721 254.37 54.446 255.195 52.3191 255.607Z" fill="#367CFF"/>
<path d="M67.6881 247.209C67.6376 247.218 67.5853 247.21 67.5401 247.186C67.4949 247.161 67.4595 247.121 67.4401 247.074C67.4207 247.026 67.4184 246.973 67.4336 246.924C67.4488 246.874 67.4805 246.832 67.5234 246.804L132.939 203.511L115.459 176.426L71.3084 204.138C71.2719 204.162 71.2294 204.173 71.1862 204.173C71.143 204.172 71.1009 204.159 71.0652 204.134C71.0294 204.11 71.0015 204.076 70.9849 204.036C70.9683 203.996 70.9636 203.952 70.9716 203.909L74.6822 183.502C74.6945 183.445 74.7282 183.396 74.7762 183.363C74.8243 183.331 74.8828 183.319 74.9396 183.33C74.9964 183.34 75.0469 183.372 75.0805 183.419C75.1142 183.466 75.1283 183.524 75.1199 183.582L71.4996 203.492L115.409 175.936C115.458 175.905 115.518 175.895 115.575 175.908C115.632 175.92 115.682 175.955 115.714 176.004L133.431 203.46C133.463 203.51 133.474 203.569 133.462 203.627C133.45 203.684 133.416 203.735 133.367 203.767L67.7685 247.177C67.7441 247.193 67.7168 247.204 67.6881 247.209Z" fill="#0C0C0C"/>
<path d="M174.839 187.735C174.814 187.739 174.788 187.739 174.763 187.735C174.705 187.725 174.653 187.694 174.618 187.646C174.583 187.598 174.568 187.538 174.577 187.48L177.406 169.076C177.417 169.019 177.45 168.969 177.497 168.936C177.544 168.903 177.602 168.889 177.659 168.898C177.715 168.906 177.767 168.937 177.802 168.983C177.837 169.028 177.852 169.086 177.846 169.143L175.017 187.547C175.01 187.593 174.99 187.636 174.958 187.669C174.926 187.703 174.884 187.726 174.839 187.735Z" fill="#0C0C0C"/>
<path d="M193.91 121.503L194.073 117.044C194.116 116.41 193.916 115.783 193.515 115.29C193.114 114.798 192.542 114.476 191.913 114.391C191.587 114.358 191.258 114.392 190.945 114.491C190.633 114.589 190.344 114.751 190.096 114.965C189.848 115.18 189.646 115.443 189.503 115.738C189.359 116.033 189.278 116.354 189.262 116.682L188.837 125.834" fill="#E98862"/>
<path d="M210.138 127.107L198.163 116.855L204.714 69.9711L218.259 81.1383L210.138 127.107Z" fill="#0CBC8B"/>
<path d="M203.744 80.3741L205.336 71.3504C205.336 71.3504 207.102 78.2311 216.407 81.8584L216.074 89.2412L203.317 84.5681L203.744 80.3741Z" fill="#0CBC8B"/>
<path opacity="0.49" d="M203.744 80.3741L205.336 71.3504C205.336 71.3504 207.102 78.2311 216.407 81.8584L216.074 89.2412L203.317 84.5681L203.744 80.3741Z" fill="white"/>
<path d="M214.236 82.7031C214.236 82.7031 198.05 75.9055 185.123 78.5961L213.175 84.7476L214.236 82.7031Z" fill="#0CBC8B"/>
<path opacity="0.81" d="M214.236 82.7031C214.236 82.7031 198.05 75.9055 185.123 78.5961L213.175 84.7476L214.236 82.7031Z" fill="white"/>
<path d="M218.259 81.1382L213.474 82.9992L205.688 128.491L210.138 127.107L218.259 81.1382Z" fill="#0CBC8B"/>
<path opacity="0.25" d="M218.259 81.1382L213.474 82.9992L205.688 128.491L210.138 127.107L218.259 81.1382Z" fill="white"/>
<path d="M183.553 77.4999L213.474 82.9992L205.688 128.491L176.396 123.429L183.553 77.4999Z" fill="#0CBC8B"/>
</g>
<defs>
<clipPath id="clip0_29_8">
<rect width="555" height="415" fill="white"/>
</clipPath>
</defs>
</svg>
