<svg width="40" height="36" viewBox="0 0 40 36" fill="none" xmlns="http://www.w3.org/2000/svg">
<path d="M37.1454 0.0213136C36.4805 -0.0491908 35.7578 0.054628 35.0316 0.341645C34.1314 0.695666 20.0257 6.62833 6.8766 12.1627L2.53184 13.9909C0.849448 14.6729 0 15.7822 0 17.2762C0 18.3223 0.442791 19.7412 2.55528 20.5772L9.88902 23.5149C10.5232 25.417 11.9961 29.8334 12.3662 31.0075C12.5862 31.7036 13.142 33.457 14.5464 33.8671C14.8344 33.9651 15.135 34.0155 15.4411 34.0155C16.3273 34.0155 16.9654 33.6031 17.2775 33.3631L21.9387 29.4215L27.6002 34.6562C27.8182 34.8782 28.9724 36 30.5227 36C32.4572 36 33.9246 34.3899 34.2306 32.8318C34.3967 31.9778 39.8569 4.57227 39.8569 4.57627C40.3471 2.37814 39.4658 1.23785 38.8997 0.751825C38.4146 0.336801 37.8103 0.0918178 37.1454 0.0213136ZM35.8208 4.34188C35.0667 8.1221 30.9554 28.756 30.3313 31.7302L22.0559 24.0774L16.4413 28.8316L17.9964 22.7492C17.9964 22.7492 28.724 11.8923 29.3701 11.2603C29.8902 10.7542 29.9992 10.5768 29.9992 10.4008C29.9992 10.1668 29.8787 9.99847 29.6006 9.99847C29.3506 9.99847 29.011 10.238 28.8309 10.35C26.5437 11.7758 16.8043 17.3234 12.0106 20.0498L5.05587 17.2723L8.43165 15.8543C17.0317 12.2341 32.348 5.78597 35.8208 4.34188Z" fill="white"/>
</svg>
